<svg xmlns="http://www.w3.org/2000/svg" width="100" height="100" viewBox="0 0 1143 663.73"><defs><linearGradient id="a" x1="596" x2="596" y1="757.78" y2="598.14" gradientUnits="userSpaceOnUse"><stop offset="0" stop-color="#808080" stop-opacity=".25"/><stop offset=".54" stop-color="#808080" stop-opacity=".12"/><stop offset="1" stop-color="#808080" stop-opacity=".1"/></linearGradient></defs><g opacity=".1"><ellipse cx="840.37" cy="625.03" fill="#3f3d56" rx="22.09" ry="28.91"/><path fill="#3f3d56" d="M857.85 501.35a34.83 34.83 0 0 0 4.65-17.67c0-16-9.9-28.9-22.1-28.9s-22.07 12.93-22.07 28.9a34.83 34.83 0 0 0 4.6 17.67 36.15 36.15 0 0 0 0 35.33 36.17 36.17 0 0 0 0 35.34 34.83 34.83 0 0 0-4.6 17.67c0 16 9.9 28.9 22.08 28.9s22.1-12.94 22.1-28.9a34.83 34.83 0 0 0-4.6-17.68 36.17 36.17 0 0 0 0-35.34 36.15 36.15 0 0 0 0-35.33z"/><ellipse cx="840.37" cy="448.35" fill="#3f3d56" rx="22.09" ry="28.91"/><ellipse cx="840.37" cy="413.01" fill="#3f3d56" rx="22.09" ry="28.91"/><path fill="#6c63ff" d="M923.05 171.2a106.47 106.47 0 0 0 8.22-12.12l-58-9.53 62.77.47a106 106 0 0 0 2-83.82l-84.22 43.66L931.5 52.8a105.8 105.8 0 1 0-174.75 118.4 106 106 0 0 0-12.06 19.28L820 229.62l-80.32-27a105.8 105.8 0 0 0 17 99.34 105.8 105.8 0 1 0 166.3 0 105.8 105.8 0 0 0 0-130.8z"/><path d="M734.1 236.6a105.3 105.3 0 0 0 22.65 65.4 105.8 105.8 0 1 0 166.3 0c14.18-18-188.94-77.28-188.94-65.4z" opacity=".1"/></g><g opacity=".1"><ellipse cx="220.81" cy="605.42" fill="#3f3d56" rx="13.44" ry="17.6"/><path fill="#3f3d56" d="M231.5 530.13a21.23 21.23 0 0 0 2.8-10.76c0-9.72-6-17.6-13.44-17.6s-13.44 7.88-13.44 17.6a21.23 21.23 0 0 0 2.8 10.76 22.06 22.06 0 0 0 0 21.5 22.06 22.06 0 0 0 0 21.52 21.16 21.16 0 0 0-2.8 10.75c0 9.73 6 17.6 13.44 17.6s13.45-7.87 13.45-17.6a21.16 21.16 0 0 0-2.8-10.75 22 22 0 0 0 0-21.5 22 22 0 0 0 0-21.52z"/><ellipse cx="220.81" cy="497.86" fill="#3f3d56" rx="13.44" ry="17.6"/><ellipse cx="220.81" cy="476.35" fill="#3f3d56" rx="13.44" ry="17.6"/><path fill="#6c63ff" d="M170.5 329.13a64.1 64.1 0 0 1-5-7.37l35.33-5.8-38.2.3a64.57 64.57 0 0 1-1.24-51l51.22 26.6-47.27-34.8a64.4 64.4 0 1 1 106.37 72.07 64.33 64.33 0 0 1 7.34 11.73L233.2 364.7l48.9-16.4a64.44 64.44 0 0 1-10.38 60.47 64.4 64.4 0 1 1-101.24 0 64.42 64.42 0 0 1 0-79.64z"/><path d="M285.5 368.95a64.15 64.15 0 0 1-13.78 39.82 64.4 64.4 0 1 1-101.24 0c-8.63-10.9 115.02-47.05 115.02-39.82z" opacity=".1"/></g><g opacity=".1"><ellipse cx="523.81" cy="614.79" fill="#3f3d56" rx="17.99" ry="23.55"/><path fill="#3f3d56" d="M538.05 514.03a28.4 28.4 0 0 0 3.75-14.4c0-13-8-23.55-18-23.55s-18 10.55-18 23.55a28.32 28.32 0 0 0 3.76 14.4 29.44 29.44 0 0 0 0 28.8 29.42 29.42 0 0 0 0 28.77 28.32 28.32 0 0 0-3.76 14.4c0 13 8.06 23.55 18 23.55s18-10.55 18-23.55a28.4 28.4 0 0 0-3.75-14.4 29.48 29.48 0 0 0 0-28.78 29.5 29.5 0 0 0 0-28.8z"/><ellipse cx="523.81" cy="470.85" fill="#3f3d56" rx="17.99" ry="23.55"/><ellipse cx="523.81" cy="442.06" fill="#3f3d56" rx="17.99" ry="23.55"/><path fill="#6c63ff" d="M456.5 245.06a85.9 85.9 0 0 1-6.7-9.86l47.27-7.76-51.12.38a86.35 86.35 0 0 1-1.65-68.3l68.6 35.6-63.27-46.5a86.2 86.2 0 1 1 142.3 96.44 86.33 86.33 0 0 1 9.83 15.72l-61.36 31.88 65.43-22a86.22 86.22 0 0 1-13.9 80.93 86.18 86.18 0 1 1-135.47 0 86.2 86.2 0 0 1 0-106.58z"/><path d="M610.38 298.35a85.8 85.8 0 0 1-18.44 53.28 86.18 86.18 0 1 1-135.48 0c-11.55-14.66 153.92-62.96 153.92-53.28z" opacity=".1"/></g><path fill="#3f3d56" d="M1143 636.22c0 6.87-50.22 13.15-133.25 18-15.1.87-31.28 1.7-48.44 2.48q-22.23 1-46.6 1.9-23.63.83-49.06 1.55c-53.54 1.53-112.73 2.63-175.6 3.18q-22.9.2-46.4.32-24.48.1-49.52.1c-303.14 0-548.87-12.3-548.87-27.5s245.73-27.5 548.87-27.5c130.5 0 250.36 2.3 344.56 6.1l10.3.4h.06c118.66 5.04 193.96 12.6 193.96 20.97z"/><path d="M1143 636.22c0 6.87-50.22 13.15-133.25 18-15.1.87-31.28 1.7-48.44 2.48q-22.23 1-46.6 1.9-23.63.83-49.06 1.55c-53.54 1.53-112.73 2.63-175.6 3.18q-22.9.2-46.4.32-24.48.1-49.52.1c-303.14 0-548.87-12.3-548.87-27.5s245.73-27.5 548.87-27.5c130.5 0 250.36 2.3 344.56 6.1l10.3.4h.06c118.66 5.04 193.96 12.6 193.96 20.97z" opacity=".15"/><path fill="#3f3d56" d="M1097.75 631.38c0 5.74-50.22 11-133.25 15-15.1.73-31.28 1.42-48.43 2.07q-22.25.84-46.62 1.58-23.62.7-49.05 1.3c-53.55 1.3-112.74 2.2-175.62 2.67q-22.87.17-46.4.26-24.47.1-49.5.1c-303.14 0-548.88-10.3-548.88-23s245.74-23 548.88-23c130.5 0 250.35 1.9 344.55 5.08l10.3.35h.07c118.7 4.26 193.95 10.55 193.95 17.58zm-956-208.93L128 380.25l330-3.6 13.52 41.77z"/><path d="M141.76 422.45l-13.78-42.2 330-3.6 13.52 41.77z" opacity=".15"/><path fill="#3f3d56" d="M119.76 422.45l-13.78-42.2 330-3.6 13.52 41.77zm563.35-64.83q-51.17 0-80.66-40.63t-29.5-98.45q0-58.2 28.53-98.24t80.46-40q55.08 0 83 42.2t27.93 97.66q0 55.07-28.9 96.28t-80.85 41.18zm1-30.47q33.68 0 50.34-29.35t16.66-74q0-49.7-17.05-81.4t-52.3-31.7q-67 0-67 106.45 0 110 69.34 110zm11.25 291.8H646l323.08-533.2h48.42zm285.82 5.46q-51.95 0-81-41T871 484.97q0-57.8 28.32-97.85t80.66-40q54.7 0 82.42 42.2t27.74 97.65q0 54.7-28.7 96.1t-80.3 41.36zm.58-31.24q33.5 0 50.06-28.85t16.56-73.7q0-48-16.75-80.5t-52.18-32.56q-67.4 0-67.4 106.44 0 109.2 69.7 109.18zM683.1 357.62q-51.17 0-80.66-40.63t-29.5-98.45q0-58.2 28.53-98.24t80.46-40q55.08 0 83 42.2t27.93 97.66q0 55.07-28.9 96.28t-80.85 41.18zm1-30.47q33.68 0 50.34-29.35t16.66-74q0-49.7-17.05-81.4t-52.3-31.7q-67 0-67 106.45 0 110 69.34 110zm11.25 291.8H646l323.08-533.2h48.42zm285.82 5.46q-51.95 0-81-41T871 484.97q0-57.8 28.32-97.85t80.66-40q54.7 0 82.42 42.2t27.74 97.65q0 54.7-28.7 96.1t-80.3 41.36zm.58-31.24q33.5 0 50.06-28.85t16.56-73.7q0-48-16.75-80.5t-52.18-32.56q-67.4 0-67.4 106.44 0 109.2 69.7 109.18z"/><path d="M683.1 357.62q-51.17 0-80.66-40.63t-29.5-98.45q0-58.2 28.53-98.24t80.46-40q55.08 0 83 42.2t27.93 97.66q0 55.07-28.9 96.28t-80.85 41.18zm1-30.47q33.68 0 50.34-29.35t16.66-74q0-49.7-17.05-81.4t-52.3-31.7q-67 0-67 106.45 0 110 69.34 110zm11.25 291.8H646l323.08-533.2h48.42zm285.82 5.46q-51.95 0-81-41T871 484.97q0-57.8 28.32-97.85t80.66-40q54.7 0 82.42 42.2t27.74 97.65q0 54.7-28.7 96.1t-80.3 41.36zm.58-31.24q33.5 0 50.06-28.85t16.56-73.7q0-48-16.75-80.5t-52.18-32.56q-67.4 0-67.4 106.44 0 109.2 69.7 109.18z" opacity=".15"/><path fill="#3f3d56" d="M652.1 357.62q-51.17 0-80.66-40.63t-29.5-98.45q0-58.2 28.53-98.24t80.46-40q55.08 0 83 42.2t27.93 97.66q0 55.07-28.9 96.28t-80.85 41.18zm1-30.47q33.68 0 50.34-29.35t16.66-74q0-49.7-17.05-81.4t-52.3-31.7q-67 0-67 106.45 0 110 69.34 110zm11.25 291.8H615l323.08-533.2h48.42zm285.82 5.46q-51.95 0-81-41T840 484.97q0-57.8 28.32-97.85t80.66-40q54.7 0 82.42 42.2t27.74 97.65q0 54.7-28.7 96.1t-80.3 41.36zm.58-31.24q33.5 0 50.06-28.85t16.56-73.7q0-48-16.75-80.5t-52.2-32.56q-67.4 0-67.4 106.44 0 109.2 69.73 109.18z"/><path fill="none" stroke="#3f3d56" stroke-width="4" stroke-miterlimit="10" d="M760.07 632.32c4.12-7.64-.56-17-5.94-23.82s-11.94-13.9-11.8-22.6c.2-12.46 13.44-19.83 24-26.45a117.08 117.08 0 0 0 21.58-17.34 31.68 31.68 0 0 0 6.64-8.87c2.2-4.88 2.12-10.43 2-15.77q-.7-26.72-2.64-53.36"/><path fill="#6c63ff" d="M814.02 463.12a19.43 19.43 0 0 0-9.7-15.94l-4.37 8.62.13-10.44a19.7 19.7 0 0 0-6.4-.77A19.46 19.46 0 1 0 814 463.1zm-34.7 131.74a19.45 19.45 0 1 1 .94-15.67l-12.16 9.88 13.4-3.12a19.4 19.4 0 0 1-2.18 8.9zm-9.6-37.8a19.46 19.46 0 0 1-20.36-18.54 19.24 19.24 0 0 1 1.68-8.87 19.5 19.5 0 0 1 12.46-10.8l-.1 8 4.4-8.7a19.46 19.46 0 1 1 1.82 38.87zm47.23-31.44a19.47 19.47 0 1 1-1.82-38.9 19.28 19.28 0 0 1 10.42 2.48l-3.44 9.42 7.1-6.8a19.4 19.4 0 0 1 6.3 13.44 19 19 0 0 1-.5 5.36 19.47 19.47 0 0 1-18.05 15z"/><path d="M811.4 468.3c-4.5.5-8.85 1.9-13.36 2.18s-9.46-.8-12.3-4.3c-1.55-1.9-2.3-4.28-3.6-6.34a13.8 13.8 0 0 0-4.9-4.6 19.46 19.46 0 1 0 36.37 12.9c-.73.04-1.46.1-2.2.17zm5.55 57.32a19.48 19.48 0 0 1-18.5-27.76 14.58 14.58 0 0 1 3.9 3.92c1.4 2.1 2.23 4.5 3.86 6.43 3 3.58 8.22 4.74 12.9 4.53s9.24-1.55 13.92-2c.65-.06 1.3-.1 2-.12a19.47 19.47 0 0 1-18.07 15.02zm-47.24 31.43a19.46 19.46 0 0 1-20.34-18.53 19.24 19.24 0 0 1 1.68-8.87 15.66 15.66 0 0 1 4.1 4c1.52 2.13 2.47 4.6 4.24 6.56 3.28 3.66 8.8 4.95 13.77 4.83s9.46-1.28 14.25-1.65a19.47 19.47 0 0 1-17.7 13.67zm9.62 37.8A19.46 19.46 0 0 1 743.84 579a19.6 19.6 0 0 1 4.27 3.8c1.86 2.27 3.08 4.83 5.22 6.93 4 3.9 10.4 5.52 16.12 5.67a82.85 82.85 0 0 0 9.88-.5z" opacity=".1"/><path fill="none" stroke="#3f3d56" stroke-width="4" stroke-miterlimit="10" d="M1061.07 631.32c4.12-7.64-.56-17-5.94-23.82s-11.94-13.9-11.8-22.6c.2-12.46 13.44-19.83 24-26.45a117.08 117.08 0 0 0 21.58-17.34 31.68 31.68 0 0 0 6.64-8.87c2.2-4.88 2.12-10.43 2-15.77q-.7-26.72-2.64-53.36"/><path fill="#6c63ff" d="M1115.02 462.12a19.43 19.43 0 0 0-9.7-15.94l-4.37 8.62.13-10.44a19.7 19.7 0 0 0-6.4-.77A19.46 19.46 0 1 0 1115 462.1zm-34.7 131.74a19.45 19.45 0 1 1 .94-15.67l-12.16 9.88 13.4-3.12a19.4 19.4 0 0 1-2.18 8.9zm-9.6-37.8a19.46 19.46 0 0 1-20.36-18.54 19.24 19.24 0 0 1 1.68-8.87 19.5 19.5 0 0 1 12.46-10.8l-.1 8 4.4-8.7h.05a19.46 19.46 0 1 1 1.82 38.87zm47.23-31.44a19.47 19.47 0 1 1-1.82-38.9 19.28 19.28 0 0 1 10.42 2.48l-3.44 9.42 7.1-6.8a19.4 19.4 0 0 1 6.3 13.44 19 19 0 0 1-.5 5.36 19.47 19.47 0 0 1-18.05 15z"/><path d="M1112.4 467.3c-4.5.5-8.85 1.9-13.36 2.18s-9.46-.8-12.3-4.3c-1.55-1.9-2.3-4.28-3.6-6.34a13.8 13.8 0 0 0-4.9-4.6 19.46 19.46 0 1 0 36.37 12.9c-.73.04-1.46.1-2.2.17zm5.55 57.32a19.48 19.48 0 0 1-18.5-27.76 14.58 14.58 0 0 1 3.9 3.92c1.4 2.1 2.23 4.5 3.86 6.43 3 3.58 8.22 4.74 12.9 4.53s9.24-1.55 13.92-2c.65-.06 1.3-.1 2-.12a19.47 19.47 0 0 1-18.07 15.02zm-47.24 31.43a19.46 19.46 0 0 1-20.34-18.53 19.24 19.24 0 0 1 1.68-8.87 15.66 15.66 0 0 1 4.1 4c1.52 2.13 2.47 4.6 4.24 6.56 3.28 3.66 8.8 4.95 13.77 4.83 4.82-.1 9.46-1.28 14.25-1.65a19.47 19.47 0 0 1-17.7 13.67zm9.62 37.8a19.46 19.46 0 0 1-35.48-15.87 19.6 19.6 0 0 1 4.27 3.8c1.86 2.27 3.08 4.83 5.22 6.93 4 3.9 10.4 5.52 16.12 5.67a82.85 82.85 0 0 0 9.88-.5z" opacity=".1"/><path fill="none" stroke="#3f3d56" stroke-width="4" stroke-miterlimit="10" d="M109.93 618.32c-4.12-7.64.56-17 5.94-23.82s11.94-13.9 11.8-22.6c-.2-12.46-13.44-19.83-24-26.45A117.08 117.08 0 0 1 82.1 528.1a31.68 31.68 0 0 1-6.64-8.87c-2.2-4.88-2.12-10.43-2-15.77q.7-26.72 2.64-53.36"/><path fill="#6c63ff" d="M55.98 449.12a19.43 19.43 0 0 1 9.7-15.94l4.37 8.62-.13-10.44a19.7 19.7 0 0 1 6.4-.77A19.46 19.46 0 1 1 56 449.1zm34.7 131.74a19.45 19.45 0 1 0-.94-15.67l12.16 9.88-13.4-3.12a19.4 19.4 0 0 0 2.18 8.9zm9.6-37.8a19.46 19.46 0 0 0 20.36-18.54 19.24 19.24 0 0 0-1.68-8.87 19.5 19.5 0 0 0-12.46-10.8l.1 8-4.4-8.7a19.46 19.46 0 1 0-1.82 38.87zM53.06 511.6a19.47 19.47 0 1 0 1.82-38.9 19.28 19.28 0 0 0-10.37 2.48l3.44 9.42-7.13-6.76a19.4 19.4 0 0 0-6.3 13.4 19 19 0 0 0 .5 5.36 19.47 19.47 0 0 0 18.05 15z"/><path d="M58.6 454.3c4.5.5 8.85 1.9 13.36 2.18s9.46-.8 12.3-4.3c1.55-1.9 2.3-4.28 3.6-6.34a13.8 13.8 0 0 1 4.9-4.6 19.46 19.46 0 1 1-36.37 12.9c.73.04 1.46.1 2.2.17zm-5.55 57.32a19.48 19.48 0 0 0 18.5-27.76 14.58 14.58 0 0 0-3.9 3.92c-1.4 2.1-2.23 4.5-3.86 6.43-3 3.58-8.22 4.74-12.9 4.53s-9.24-1.55-13.92-2c-.65-.06-1.3-.1-2-.12a19.47 19.47 0 0 0 18.07 15.02zm47.24 31.43a19.46 19.46 0 0 0 20.34-18.53 19.24 19.24 0 0 0-1.68-8.87 15.66 15.66 0 0 0-4.1 4c-1.52 2.13-2.47 4.6-4.24 6.56-3.28 3.66-8.8 4.95-13.77 4.83-4.82-.1-9.46-1.28-14.25-1.65a19.47 19.47 0 0 0 17.7 13.67zm-9.62 37.8A19.46 19.46 0 0 0 126.16 565a19.6 19.6 0 0 0-4.27 3.8c-1.86 2.27-3.08 4.83-5.22 6.93-4 3.9-10.4 5.52-16.12 5.67a82.85 82.85 0 0 1-9.88-.5z" opacity=".1"/><path fill="url(#a)" d="M702 642.75a15.53 15.53 0 0 0-6.18-12.52c-.24-9.17-6.78-16.66-15.2-17.82a18.13 18.13 0 0 0-12.07-13.5 15.34 15.34 0 0 0-2.25-.54h-.22l-.4-.05h-2.05c-8.58 0-15.72 6.57-17.2 15.22-5.54-1.28-10.63.38-11.54 3.9a4.75 4.75 0 0 0 .14 2.8c.94 2.72 4 5.32 8.15 6.6l.53.17c.27.07.54.13.8.2h.2a14 14 0 0 0 6.1 18.3 3.17 3.17 0 0 0-.36.23 5 5 0 0 0-1.2 1.68 24.36 24.36 0 0 0-2.32 5.6c-.4 1.67-.47 3.42-1 5.07-.9 3-3.25 5.63-3.52 8.82-.12 1.4.1 3.08-.9 4.05a6.6 6.6 0 0 1-.8.6 6.18 6.18 0 0 0-1.76 1.83 5.88 5.88 0 0 1-1.17 1.62c-.9.7-2.4.62-2.86 1.68s.7 2.3.44 3.47c-.22.94-1.25 1.37-2 2a7.1 7.1 0 0 0-1.7 3.23 10.34 10.34 0 0 1-8.53-2.17 16 16 0 0 1 .88 3.2c-1.2-1.27-3.15-1.64-4.6-2.3a14.7 14.7 0 0 1-4.9-3.64l2.62-.36-11.6-17.6-3.42-.7 3.07 5.9a1.84 1.84 0 0 0-1 1.25 5.36 5.36 0 0 0-.12 2 37 37 0 0 0 .8 4.7l.88 4.13a10.74 10.74 0 0 0 .3 1.15 11.66 11.66 0 0 0-3.45.4 30.22 30.22 0 0 0-7.12-1.7 3.64 3.64 0 0 0-1.6.08 3.9 3.9 0 0 0-1.5 1.23 48 48 0 0 0-5.3 7.46c-6.24 10.83-14.56 20.3-22.35 30.1-5.38 2.18-10.8 4.26-16.23 6.32l-11.67 4.45c-2.33.9-4.75 1.8-7.23 1.64-1.12-.06-2.48-.23-3.1.72a6 6 0 0 0-.72 1.52c-.4 0-.82.1-1.2.12h-.07c-.73-1.84-1.37-3.8-2.8-5.15a1.74 1.74 0 0 0-1.3 1c-.3.53-.46 1.1-.78 1.58-.63.92-1.72 1.37-2.5 2.15s-1.27 2-2.1 2.76a8.38 8.38 0 0 1-4 1.54 25.25 25.25 0 0 0-6.22 2.36 10.63 10.63 0 0 1-2.3 1.06 8.66 8.66 0 0 1-2.7.1l-6.17-.46a4.8 4.8 0 0 0-1.65.07 3.07 3.07 0 0 0-2 3.17 4.93 4.93 0 0 0 1.95 3.4 13 13 0 0 0 3.52 1.83 102.22 102.22 0 0 0 16.55 4.85v1.25a28.07 28.07 0 0 0 12.6 3 1.88 1.88 0 0 0 .95-.17 2.1 2.1 0 0 0 .8-1.24 51 51 0 0 0 2.46-12.1 6.23 6.23 0 0 0 2.24-.58c2.13-.58 4.24.88 6.43 1.12 2.7.3 5.2-1.28 7.76-2.25.37-.14.74-.26 1.1-.38a12.43 12.43 0 0 1-2.54 2.47c-1.07.76-2.26 1.32-3.3 2.1a21.87 21.87 0 0 1-2.77 2.16 16.7 16.7 0 0 1-2.13.82 14.44 14.44 0 0 0-3 1.5 6.24 6.24 0 0 0-2.08 2 2.73 2.73 0 0 0 1.86 4.27 8.58 8.58 0 0 0 2.53.06c3.35-.25 6.68-.56 10-.86a28 28 0 0 0 4.2-.6c.73-.18 1.45-.42 2.18-.6a17.64 17.64 0 0 1 3.8-.58 3.16 3.16 0 0 1 1.12.1c.78.26 1.33 1 2.12 1.2a3.27 3.27 0 0 0 1.5-.2 34.7 34.7 0 0 1 7.43-.8c1.1-.05 2.37-.26 2.88-1.27.62-1.25-.42-2.65-.83-4a12.06 12.06 0 0 1-.34-2.62 16.34 16.34 0 0 0-1.84-6.23 16.87 16.87 0 0 1-1.37-2.84 72.27 72.27 0 0 0 13.64-6.92c2.45-1.53 5-3.18 7.77-3.74 3.24-.65 6.58.2 9.77 1.13a219.7 219.7 0 0 1 22.4 7.8c3.5 1.44 7 2.96 10.57 4a16.47 16.47 0 0 0 3.76 3.67c2.4 1.55 5.33 2 8.15 2.22a107 107 0 0 0 11.47.43c2.92-.05 5.93-.25 8.54-1.58a9.9 9.9 0 0 0 1.8-1.18c2 .35 4.05-.72 5.62-2.1a13.6 13.6 0 0 0 4.3-6.74c.92-3.6.2-7.82 2.43-10.77.6-.8 1.36-1.44 1.94-2.24a6 6 0 0 0 1-3.63l.1-.15a13.48 13.48 0 0 0 1-3.64 20.83 20.83 0 0 1 1-2.87 86.68 86.68 0 0 0 2.93-8.53 46.82 46.82 0 0 0 1.36-5.85c.23-1.6.37-3.18.5-4.77a28.7 28.7 0 0 1 1.44-7.3 59.72 59.72 0 0 0 3.3-17.53v-.35A11.73 11.73 0 0 0 701 655.8a12.54 12.54 0 0 0-1.08-5.1 15.86 15.86 0 0 0 2.08-7.95zm-56.55 68.7c.17.62.37 1.23.57 1.84-.92-.92-1.83-1.86-2.76-2.76.37.1.74.23 1.1.36a6.6 6.6 0 0 1 1.1.56zm-4.48-3c-5.46-4.73-11.78-8.4-17.37-13 3 1.52 6 3.27 9 4.95q5.24 3 10.6 5.74a8.62 8.62 0 0 1-2.2 2.28zm2.33-11.93l.26-.27v1.87c-.5-.16-1-.32-1.47-.5a12.4 12.4 0 0 0 1.2-1.14zm-48.07 12.84a45.32 45.32 0 0 0 5.83-8.3c2.16 3.78 5.68 6.5 8.68 9.68-4.82-.68-9.65-1.2-14.5-1.42z" transform="translate(-28.5 -118.14)"/><path fill="#2f2e41" d="M574.53 545.12l3.45.7 11.75 17.36-5.2.7-10-18.76z"/><path fill="#fbbebe" d="M490.98 615.58a68.35 68.35 0 0 0 3.43 9 83.16 83.16 0 0 0 11.47-3.27 31.22 31.22 0 0 0-2.38-3.22 11.23 11.23 0 0 0-3.25-2.5c-1.2-.5-2.66-.12-3.93-.05q-2.67.1-5.34.05z"/><path fill="#2f2e41" d="M500.27 620.22c-1.94-.6-3.13-2.57-3.92-4.46s-1.43-3.95-2.93-5.34a1.75 1.75 0 0 0-1.32 1c-.3.5-.46 1.07-.8 1.55-.6.9-1.7 1.34-2.5 2.1s-1.28 1.95-2.13 2.72a8.47 8.47 0 0 1-4 1.53 25.35 25.35 0 0 0-6.26 2.32 10.7 10.7 0 0 1-2.3 1 8.8 8.8 0 0 1-2.72.1l-6.23-.46a4.86 4.86 0 0 0-1.66.07 3 3 0 0 0-2 3.12 4.84 4.84 0 0 0 2 3.34 13.28 13.28 0 0 0 3.53 1.8 106.73 106.73 0 0 0 16.7 4.77v1.24a28.9 28.9 0 0 0 12.7 3 2 2 0 0 0 1-.17 2.08 2.08 0 0 0 .8-1.22 49.18 49.18 0 0 0 2.6-13.54 10.16 10.16 0 0 0-.26-3.47c-.34-1.12.82-.65-.26-1.1"/><path fill="#2f2e41" d="M619.7 596.74c-18.46 1.12-36.7-4.3-55.2-4.88a27.6 27.6 0 0 0-6.86.44 33.7 33.7 0 0 0-6.8 2.64c-9.9 4.6-20.17 8.43-30.42 12.25l-11.76 4.37c-2.36.87-4.8 1.76-7.3 1.6-1.12-.06-2.5-.23-3.13.7-1.9 2.84-1 7 .26 10.2.4 1 1.1 2.14 2.2 2.26a6.5 6.5 0 0 0 2.24-.57c2.14-.57 4.28.87 6.48 1.1 2.73.3 5.26-1.26 7.83-2.2 4.26-1.58 8.92-1.53 13.4-2.28 7.52-1.25 14.48-4.74 21-8.72 2.48-1.5 5-3.13 7.84-3.68 3.26-.64 6.63.2 9.84 1.1a227.16 227.16 0 0 1 22.57 7.7 104 104 0 0 0 11.8 4.3 42.66 42.66 0 0 0 26.45-1.54c3-1.17 6.16-3.23 6.33-6.42.1-1.82-1.3-3.42-2.25-5-.6-1-1.2-2-1.87-2.95-3.18-4.64-7.04-10.77-12.65-10.43z"/><path d="M619.7 596.74c-18.46 1.12-36.7-4.3-55.2-4.88a27.6 27.6 0 0 0-6.86.44 33.7 33.7 0 0 0-6.8 2.64c-9.9 4.6-20.17 8.43-30.42 12.25l-11.76 4.37c-2.36.87-4.8 1.76-7.3 1.6-1.12-.06-2.5-.23-3.13.7-1.9 2.84-1 7 .26 10.2.4 1 1.1 2.14 2.2 2.26a6.5 6.5 0 0 0 2.24-.57c2.14-.57 4.28.87 6.48 1.1 2.73.3 5.26-1.26 7.83-2.2 4.26-1.58 8.92-1.53 13.4-2.28 7.52-1.25 14.48-4.74 21-8.72 2.48-1.5 5-3.13 7.84-3.68 3.26-.64 6.63.2 9.84 1.1a227.16 227.16 0 0 1 22.57 7.7 104 104 0 0 0 11.8 4.3 42.66 42.66 0 0 0 26.45-1.54c3-1.17 6.16-3.23 6.33-6.42.1-1.82-1.3-3.42-2.25-5-.6-1-1.2-2-1.87-2.95-3.18-4.64-7.04-10.77-12.65-10.43z" opacity=".1"/><path fill="#fbbebe" d="M526.43 616.48q4.34 1.47 8.74 2.72c1.65-2.7 4.73-4.6 5.43-7.68a.72.72 0 0 0 0-.4.74.74 0 0 0-.33-.3 16.35 16.35 0 0 0-6.85-2c-1.9-.13-2.76 1.85-3.62 3.24-.3.56-2.6 4.68-3.37 4.42z"/><path fill="#2f2e41" d="M530.5 614.5a6.3 6.3 0 0 1-4.25-2.8c-.4-.7-.84-1.66-1.66-1.6s-1.1.94-1.28 1.7a48.57 48.57 0 0 1-2.4 8.2 15.4 15.4 0 0 1-5.1 6.7c-1.07.75-2.26 1.3-3.3 2.1a21.9 21.9 0 0 1-2.8 2.1 15.8 15.8 0 0 1-2.16.8 14.76 14.76 0 0 0-3.07 1.5 6.25 6.25 0 0 0-2.1 2 3 3 0 0 0-.18 2.8 3 3 0 0 0 2 1.4 9.07 9.07 0 0 0 2.55.07c3.37-.25 6.73-.55 10.1-.85a28.68 28.68 0 0 0 4.22-.58c.73-.18 1.45-.42 2.18-.6a18.54 18.54 0 0 1 3.85-.57 3.26 3.26 0 0 1 1.12.1c.78.26 1.33 1 2.13 1.2a3.3 3.3 0 0 0 1.52-.2 36 36 0 0 1 7.48-.8c1.1-.05 2.4-.26 2.9-1.25.63-1.23-.4-2.6-.83-3.93a12.33 12.33 0 0 1-.35-2.6 15.7 15.7 0 0 0-1.85-6.12c-.86-1.58-2-3.32-1.43-5a4.38 4.38 0 0 0 .57-1.7c-.15-2.72-6.38-1.72-7.9-2.08z"/><path fill="#fbbebe" d="M592.02 567.12a14.48 14.48 0 0 1-7.36-7.3c-.3-.7-.56-1.44-.85-2.15a16.37 16.37 0 0 0-4.4-6.1 2.1 2.1 0 0 0-1.62-.7 1.74 1.74 0 0 0-1.2 1.3 5.25 5.25 0 0 0-.13 2 37.64 37.64 0 0 0 .8 4.6l.9 4.08a8 8 0 0 0 .56 1.82 6.34 6.34 0 0 0 1.5 1.8c.83.75 1.66 1.48 2.5 2.2a8.82 8.82 0 0 0 1.5 1.1 9.26 9.26 0 0 0 2.82.8c3.67.7 7.4 1.67 10.5 4 0 0 0-2.72-.08-3a4 4 0 0 0-.78-2.18c-1.16-1.26-3.16-1.63-4.64-2.28z"/><path d="M592.02 567.12a14.48 14.48 0 0 1-7.36-7.3c-.3-.7-.56-1.44-.85-2.15a16.37 16.37 0 0 0-4.4-6.1 2.1 2.1 0 0 0-1.62-.7 1.74 1.74 0 0 0-1.2 1.3 5.25 5.25 0 0 0-.13 2 37.64 37.64 0 0 0 .8 4.6l.9 4.08a8 8 0 0 0 .56 1.82 6.34 6.34 0 0 0 1.5 1.8c.83.75 1.66 1.48 2.5 2.2a8.82 8.82 0 0 0 1.5 1.1 9.26 9.26 0 0 0 2.82.8c3.67.7 7.4 1.67 10.5 4 0 0 0-2.72-.08-3a4 4 0 0 0-.78-2.18c-1.16-1.26-3.16-1.63-4.64-2.28z" opacity=".1"/><ellipse cx="629.62" cy="531.4" fill="#2f2e41" rx="4.49" ry="4.52"/><path fill="#2f2e41" d="M626.84 528.67a5 5 0 0 0-3.55.5 4.78 4.78 0 0 0-1.22 1.67 23.6 23.6 0 0 0-2.34 5.5c-.4 1.65-.47 3.37-1 5-.92 3-3.28 5.55-3.55 8.68-.13 1.4.1 3.05-.92 4a5.88 5.88 0 0 1-.8.57 6.14 6.14 0 0 0-1.78 1.8 5.77 5.77 0 0 1-1.25 1.74c-.92.68-2.43.6-2.88 1.66s.7 2.27.44 3.4c-.2.94-1.25 1.37-2 2a6.92 6.92 0 0 0-1.7 3.2 10.6 10.6 0 0 1-8.6-2.15c1.26 3.1 1.3 6.5 1.34 9.83a4.06 4.06 0 0 1-.8 3c3.6.08 7.07 1 10.56 1.83a7.24 7.24 0 0 0 4.6 0 7.6 7.6 0 0 0 2.1-1.67c1.9-1.93 3.9-4 4.36-6.7a36.34 36.34 0 0 0 .08-4.54 26.1 26.1 0 0 1 1.15-5.52 64.45 64.45 0 0 0 2-11.35c.2-2.37 2.24-4.27 3.32-6.4 2-4 4.1-8.14 4.26-12.62.14-1.45-.36-3.24-1.84-3.43z"/><path d="M626.84 528.67a5 5 0 0 0-3.55.5 4.78 4.78 0 0 0-1.22 1.67 23.6 23.6 0 0 0-2.34 5.5c-.4 1.65-.47 3.37-1 5-.92 3-3.28 5.55-3.55 8.68-.13 1.4.1 3.05-.92 4a5.88 5.88 0 0 1-.8.57 6.14 6.14 0 0 0-1.78 1.8 5.77 5.77 0 0 1-1.25 1.74c-.92.68-2.43.6-2.88 1.66s.7 2.27.44 3.4c-.2.94-1.25 1.37-2 2a6.92 6.92 0 0 0-1.7 3.2 10.6 10.6 0 0 1-8.6-2.15c1.26 3.1 1.3 6.5 1.34 9.83a4.06 4.06 0 0 1-.8 3c3.6.08 7.07 1 10.56 1.83a7.24 7.24 0 0 0 4.6 0 7.6 7.6 0 0 0 2.1-1.67c1.9-1.93 3.9-4 4.36-6.7a36.34 36.34 0 0 0 .08-4.54 26.1 26.1 0 0 1 1.15-5.52 64.45 64.45 0 0 0 2-11.35c.2-2.37 2.24-4.27 3.32-6.4 2-4 4.1-8.14 4.26-12.62.14-1.45-.36-3.24-1.84-3.43z" opacity=".1"/><path fill="#2f2e41" d="M622.64 600.63c-3.85-1.83-6.66-5.24-9.77-8.16-5.94-5.58-13.2-9.52-19.44-14.75-4.13-3.46-7.83-7.5-12.38-10.4a30.74 30.74 0 0 0-13.26-4.64 3.68 3.68 0 0 0-1.63.08 3.9 3.9 0 0 0-1.5 1.2 47.12 47.12 0 0 0-5.36 7.35c-7.9 13.43-19.13 24.72-28.44 37.2a1.67 1.67 0 0 0-.1 2.27l1.88 3.7c1.06 2.08 2.76 4.5 5 4.1a5.55 5.55 0 0 0 2.65-1.7l8.5-8.13 8.9-8.52c5.22-5 10.53-10.1 13.94-16.48 2.66 4.6 7.38 7.63 10.62 11.86 1.23 1.6 2.23 3.37 3.33 5.07 1.76 2.73 3.76 5.3 5.76 7.84l10.23 13.06a19.8 19.8 0 0 0 4.72 4.8c2.42 1.53 5.37 1.94 8.22 2.2a105.9 105.9 0 0 0 11.55.4c2.93-.04 6-.23 8.6-1.54s4.8-4 4.66-6.93a10.3 10.3 0 0 0-1.47-4.34c-3.62-6.7-8.4-12.3-15.26-15.53z"/><ellipse cx="632.38" cy="534.53" fill="#e8e8f0" rx="3.45" ry="3.47"/><path fill="#fbbebe" d="M631.62 531.92a6.6 6.6 0 0 1 .38 5 19.33 19.33 0 0 1-2.22 4.6 22.92 22.92 0 0 1-2.9 4.12c5.34.26 10.5-1.83 15.2-4.37 3.8-2 7.58-4.55 9.6-8.36a4.44 4.44 0 0 1-3.53-.64 13.22 13.22 0 0 1-2.7-2.52l-2.68-3a12 12 0 0 1-1.65-2.17 6 6 0 0 1-.7-3.5 20 20 0 0 1-3.55 2.95c-1.9 1.25-4 2.15-5.93 3.38-.68.44-2.2 1.15-1.8 2s1.94 1.56 2.48 2.52z"/><path d="M631.62 531.92a6.6 6.6 0 0 1 .38 5 19.33 19.33 0 0 1-2.22 4.6 22.92 22.92 0 0 1-2.9 4.12c5.34.26 10.5-1.83 15.2-4.37 3.8-2 7.58-4.55 9.6-8.36a4.44 4.44 0 0 1-3.53-.64 13.22 13.22 0 0 1-2.7-2.52l-2.68-3a12 12 0 0 1-1.65-2.17 6 6 0 0 1-.7-3.5 20 20 0 0 1-3.55 2.95c-1.9 1.25-4 2.15-5.93 3.38-.68.44-2.2 1.15-1.8 2s1.94 1.56 2.48 2.52z" opacity=".1"/><path fill="#e8e8f0" d="M631.7 532.44a4.5 4.5 0 0 0 0 5.2c.14.2.7 1.4 1 1.4a.9.9 0 0 0 .6-.3 42.4 42.4 0 0 0 3.38-4 7.46 7.46 0 0 1 4.3-2.83c2.1-.32 4.1.8 5.93 1.85a5.66 5.66 0 0 1 2 1.66 5.45 5.45 0 0 1 .68 2.27 105.8 105.8 0 0 1 .6 14.36 55.24 55.24 0 0 1-.68 10.33c-.34 1.76-.85 3.48-1.1 5.26a35.36 35.36 0 0 0-.2 4.72v6.6a16.75 16.75 0 0 0 .26 3.6 44.1 44.1 0 0 0 1.45 4.2 27.6 27.6 0 0 1 1 5l.9 6.83c.3 2.16.5 4.5-.8 6.24-.58.8-1.36 1.42-2 2.2-2.25 2.86-1.5 7-2.5 10.56a13.37 13.37 0 0 1-4.34 6.65c-1.6 1.36-3.65 2.43-5.7 2-2.78-.5-4.45-3.4-5.2-6.13s-1-5.7-2.68-8c-1.34-1.9-3.4-3.07-5.28-4.42s-3.7-3.08-4.12-5.36c-.18-1-.07-2-.17-3a7.15 7.15 0 0 0-4.4-5.8c-1.43-.56-3.2-.76-4-2a9.63 9.63 0 0 0 4.15-5.6 28.7 28.7 0 0 0 1-7l.48-7.94c.2-3.55.3-7.07 1.87-10.26.7-1.42 1.57-2.76 2.3-4.17a46.27 46.27 0 0 0 2.45-6.12c1.13-3.24 2.27-6.5 3.28-9.8a19.42 19.42 0 0 1 1.8-4.56c.93-1.5 2.16-3.3 3.76-3.6z"/><path fill="#2f2e41" d="M614.06 584.03l2.1.07.45-3.17a6.84 6.84 0 0 1 .45-1.85 11.78 11.78 0 0 1 1.2-1.77c2.08-2.9 1.93-6.8 2.44-10.34.67-4.73 2.65-9.17 4.6-13.53l4.1-9.1a13.08 13.08 0 0 0 .86-2.32 12.77 12.77 0 0 0 .25-2.68c0-1.4.47-6.5.5-7.92 0-.52-1.14-.23-1.38-.7-.5-1-1.2 1.73-2.17 2.33a5.32 5.32 0 0 0-1.88 2.75c-.88 2.3-1.42 4.7-2.24 7a14.4 14.4 0 0 1-3.8 6.2c-.84.73-1.8 1.3-2.6 2.1-2.54 2.5-2.78 6.46-2.87 10-.06 2.18-.47 22.95 0 22.95zm30.25-55.38c-2 .8-3.15 3-3.72 5.14s-.8 4.4-1.9 6.3c-2.57 4.45-9.1 5.75-10.9 10.57a19.35 19.35 0 0 0-.74 5c-.32 3.45-1.46 6.8-1.8 10.24a45.15 45.15 0 0 0 .2 8.06l2.28 27.23a36 36 0 0 1-.7 12 11.53 11.53 0 0 0 6.87-1.14c2.14-1 4.1-2.32 6.16-3.46 3.55-2 7.47-3.35 10.57-6a6.27 6.27 0 0 0 1.43-1.57 13.5 13.5 0 0 0 1-3.6 20.2 20.2 0 0 1 1-2.8 83.75 83.75 0 0 0 3-8.4 45.24 45.24 0 0 0 1.37-5.78c.25-1.55.38-3.12.52-4.68a27.57 27.57 0 0 1 1.45-7.2 57.73 57.73 0 0 0 3.33-17.25 8.64 8.64 0 0 0-.17-2.54 13.6 13.6 0 0 0-1.38-2.88c-.95-1.8-1.52-3.76-2.42-5.57-2-4.1-5.6-7.2-9.34-9.82-1.92-1.26-4.03-2.64-6.1-1.85z"/><path fill="#fbbebe" d="M596.57 573.08a16.4 16.4 0 0 1-4.35-3.3c-.57-.67-1-1.42-1.62-2.08a10.7 10.7 0 0 0-5.47-3.12 26.4 26.4 0 0 0-6.34-.6 11.26 11.26 0 0 0-4.22.5 4.25 4.25 0 0 0-2.8 3c-.3 1.7.8 3.35 2.13 4.43a10.3 10.3 0 0 0 4.26 2.08 35.27 35.27 0 0 0 3.84.45c7.56.8 14.3 4.9 20.93 8.65q8.73 4.93 17.8 9.23a35.63 35.63 0 0 0 .3-5.45c0-1.36-.1-3.44-1.4-4.24-1.5-.93-4-1.14-5.65-1.7a89.8 89.8 0 0 1-11.4-4.6 81.76 81.76 0 0 1-6-3.22z"/><ellipse cx="629.62" cy="516.82" fill="#fbbebe" rx="13.47" ry="13.55"/><path fill="#2f2e41" d="M648.16 544a21.9 21.9 0 0 0-2.6 4.88c-1.68 3.43-4.3 6.37-5.6 10-1.37 3.77-1.32 8.26-4 11.23a3.87 3.87 0 0 0-1.16 1.7 8.42 8.42 0 0 1-.14 1.24c-.38 1.08-2.15 1.13-2.48 2.23-.1.32 0 .67-.16 1-.27.7-1.2.8-1.83 1.24-1.32.9-1 2.96-2 4.24a3.55 3.55 0 0 1-3.37 1.18 12.46 12.46 0 0 1-3.5-1.3 3.14 3.14 0 0 0-1.25-.4 2.55 2.55 0 0 0-1.45.5c-2.5 1.57-3.66 4.7-3.64 7.67a25 25 0 0 0 2.06 8.57 3.6 3.6 0 0 0 .7 1.28c.8.87 2.25.73 3.35.24a15.65 15.65 0 0 1 3.28-1.47c2.08-.38 4.12 1.06 6.23.94a8.78 8.78 0 0 0 4.22-1.86 23.3 23.3 0 0 0 5.68-4.84c.92-1.2 1.6-2.6 2.4-3.88a44 44 0 0 1 3.4-4.54l7.78-9.5a20.42 20.42 0 0 0 2.1-2.9 21.17 21.17 0 0 0 1.62-4.34 34.3 34.3 0 0 0 1.6-7.73 30.84 30.84 0 0 0-.56-6.5 22.55 22.55 0 0 0-1.67-6.16c-1.73-3.5-5.84-6.4-9-2.7z"/><path fill="#f86d70" d="M675.22 526.36a15.17 15.17 0 0 0-6.24-12.33 18 18 0 0 0-15.3-17.55 17.5 17.5 0 0 0-34.48.93c-5.6-1.25-10.72.4-11.65 3.84-1 3.6 3 7.83 8.92 9.43a16.4 16.4 0 0 0 5.7.57 17.55 17.55 0 0 0 12.07 7.5 17.93 17.93 0 0 0 13.15 13.57 15 15 0 0 0 4.05 5.63c0 .42-.07.85-.07 1.3a11.4 11.4 0 1 0 22.8 0 12 12 0 0 0-1.1-5 15.33 15.33 0 0 0 2.14-7.87z"/><path d="M611.35 501.93c.93-3.45 6-5.1 11.65-3.83a17.8 17.8 0 0 1 17.33-15h1.16a17 17 0 0 0-5-.74 17.8 17.8 0 0 0-17.34 15c-5.6-1.26-10.72.38-11.65 3.83-1 3.6 3 7.82 8.93 9.42a17.13 17.13 0 0 0 3.37.58c-5.62-1.64-9.4-5.74-8.45-9.27zm43.83 38c0-.45 0-.88.07-1.3a14.94 14.94 0 0 1-4.06-5.62 18 18 0 0 1-13.16-13.57 17.52 17.52 0 0 1-12.06-7.5 15.93 15.93 0 0 1-3.36-.1 17.5 17.5 0 0 0 11.62 6.9 17.93 17.93 0 0 0 13.15 13.58 15 15 0 0 0 4.05 5.63c0 .42-.07.85-.07 1.3a11.6 11.6 0 0 0 11.34 11.8 11.78 11.78 0 0 1-7.54-11.1z" opacity=".1"/><ellipse cx="662.61" cy="637.73" fill="#fbbebe" rx="2.08" ry="2.77" transform="rotate(-37.22 472.92 620.977)"/><path fill="#6c63ff" d="M313.8 589.2l13.32-7.82a32 32 0 0 0-6.8-8.15l-25.13 7.8 19.67-11.56a32 32 0 0 0-47.37 28.07c0 17.67 14.33 18.28 32 18.28s32-.6 32-18.28a31.75 31.75 0 0 0-2.75-13z"/><path d="M317.2 606.4a25 25 0 0 0-4.73-3.72c-2.4-1.6-4.92-3.25-7.77-3.8-2.5-.47-5.08-.06-7.63-.2a17.83 17.83 0 0 1-11.7-5.37c-1.8-1.87-3.24-4.18-5.43-5.62a11.9 11.9 0 0 0-8.14-1.5 19.8 19.8 0 0 0-2.4.5 32 32 0 0 0-1.9 10.86c0 17.67 14.33 18.28 32 18.28 8.58 0 16.36-.14 22.1-2.3l-1-1.8a24.88 24.88 0 0 0-3.4-5.33z" opacity=".1"/></svg>