<?xml version="1.0" encoding="UTF-8"?>
<svg xmlns="http://www.w3.org/2000/svg" xmlns:xlink="http://www.w3.org/1999/xlink" width="48pt" height="48pt" viewBox="0 0 48 48" version="1.1">
<g id="surface6339289">
<path style=" stroke:none;fill-rule:nonzero;fill:rgb(98.823529%,98.039216%,98.039216%);fill-opacity:1;" d="M 24 5 C 21.359375 5 13.328125 5 8.890625 9.054688 C 6.246094 11.6875 5 15.492188 5 21 L 5 24 C 5 29.507812 6.246094 33.3125 8.921875 35.976562 C 10.253906 37.191406 12.070312 38.160156 14.289062 38.832031 L 15 39.046875 L 15 44.375 C 15 45 15.179688 45 15.242188 45 C 15.363281 45 15.5625 44.960938 15.933594 44.628906 C 16.023438 44.539062 16.683594 43.824219 19.894531 40.230469 L 20.21875 39.867188 L 20.703125 39.898438 C 21.777344 39.964844 22.886719 40 24 40 C 26.640625 40 34.671875 40 39.109375 35.945312 C 41.753906 33.3125 43 29.503906 43 24 L 43 21 C 43 15.492188 41.753906 11.6875 39.078125 9.023438 C 34.671875 5 26.640625 5 24 5 Z M 24 5 "/>
<path style=" stroke:none;fill-rule:nonzero;fill:rgb(49.411765%,34.117647%,76.078431%);fill-opacity:1;" d="M 33.449219 28.855469 C 32.339844 27.917969 31.828125 27.636719 30.292969 26.714844 C 29.652344 26.332031 28.679688 26 28.167969 26 C 27.820312 26 27.402344 26.265625 27.144531 26.523438 C 26.488281 27.179688 26.273438 28 25.125 28 C 24 28 22.035156 26.855469 20.625 25.375 C 19.144531 23.964844 18 22 18 20.875 C 18 19.726562 18.804688 19.496094 19.460938 18.839844 C 19.71875 18.582031 20 18.164062 20 17.816406 C 20 17.304688 19.667969 16.347656 19.285156 15.707031 C 18.363281 14.171875 18.082031 13.660156 17.144531 12.550781 C 16.828125 12.171875 16.46875 12 16.089844 12 C 15.449219 12 14.613281 12.316406 14.042969 12.738281 C 13.191406 13.375 12.296875 14.242188 12.058594 15.324219 C 12.027344 15.46875 12.007812 15.617188 12 15.765625 C 11.953125 16.890625 12.398438 18.03125 12.875 19 C 13.996094 21.277344 15.484375 23.484375 17.101562 25.453125 C 17.617188 26.085938 18.179688 26.671875 18.761719 27.238281 C 19.328125 27.820312 19.914062 28.382812 20.546875 28.898438 C 22.515625 30.515625 24.722656 32.003906 27 33.125 C 27.957031 33.597656 29.085938 34.03125 30.199219 34 C 30.359375 33.996094 30.519531 33.976562 30.675781 33.941406 C 31.757812 33.703125 32.625 32.808594 33.261719 31.957031 C 33.683594 31.386719 34 30.550781 34 29.910156 C 34 29.53125 33.828125 29.171875 33.449219 28.855469 Z M 34 24 C 33.449219 24 33 23.550781 33 23 L 33 22 C 33 17.039062 28.960938 13 24 13 C 23.449219 13 23 12.550781 23 12 C 23 11.449219 23.449219 11 24 11 C 30.066406 11 35 15.933594 35 22 L 35 23 C 35 23.550781 34.550781 24 34 24 Z M 27.859375 22 C 27.414062 22 27.007812 21.703125 26.890625 21.253906 C 26.617188 20.199219 25.796875 19.378906 24.75 19.109375 C 24.214844 18.972656 23.894531 18.425781 24.03125 17.890625 C 24.171875 17.355469 24.714844 17.035156 25.25 17.171875 C 27 17.625 28.367188 18.996094 28.824219 20.746094 C 28.964844 21.28125 28.644531 21.828125 28.109375 21.96875 C 28.027344 21.988281 27.941406 22 27.859375 22 Z M 27.859375 22 "/>
<path style=" stroke:none;fill-rule:nonzero;fill:rgb(49.411765%,34.117647%,76.078431%);fill-opacity:1;" d="M 31 23 C 30.449219 23 30 22.550781 30 22 C 30 18.8125 27.507812 16.183594 24.320312 16.015625 C 23.769531 15.984375 23.347656 15.515625 23.375 14.964844 C 23.40625 14.410156 23.882812 13.988281 24.425781 14.015625 C 28.675781 14.242188 32 17.746094 32 22 C 32 22.550781 31.550781 23 31 23 Z M 31 23 "/>
<path style=" stroke:none;fill-rule:nonzero;fill:rgb(49.411765%,34.117647%,76.078431%);fill-opacity:1;" d="M 24 4 C 19.5 4 12.488281 4.414062 8.214844 8.316406 C 5.195312 11.324219 4 15.539062 4 21 C 4 21.453125 3.996094 21.957031 4.003906 22.5 C 3.996094 23.042969 4 23.546875 4 24 C 4 29.457031 5.195312 33.675781 8.214844 36.683594 C 9.84375 38.167969 11.871094 39.144531 14 39.789062 L 14 44.375 C 14 45.972656 15.050781 46 15.242188 46 L 15.25 46 C 15.742188 45.996094 16.171875 45.757812 16.597656 45.375 C 16.761719 45.234375 18.617188 43.160156 20.640625 40.894531 C 21.84375 40.972656 22.988281 41 24 41 C 28.5 41 35.511719 40.585938 39.78125 36.683594 C 42.800781 33.675781 44 29.457031 44 24 C 44 23.546875 44 23.042969 43.996094 22.5 C 44 21.953125 44 21.453125 44 21 C 44 15.539062 42.804688 11.320312 39.78125 8.316406 C 35.511719 4.414062 28.5 4 24 4 Z M 41 23.652344 L 41 24 C 41 28.90625 39.953125 32.246094 37.714844 34.511719 C 33.832031 38 26.4375 38 24 38 C 23.257812 38 22.054688 38 20.632812 37.898438 C 20.238281 38.34375 16 43.082031 16 43.082031 L 16 37.21875 C 13.894531 36.714844 11.816406 35.886719 10.285156 34.511719 C 8.046875 32.246094 7 28.90625 7 24 L 7 23.652344 C 7 23.300781 7 22.921875 7.003906 22.476562 C 7 22.078125 7 21.699219 7 21.347656 L 7 21 C 7 16.09375 8.046875 12.75 10.285156 10.488281 C 14.167969 7 21.5625 7 24 7 C 26.4375 7 33.832031 7 37.714844 10.488281 C 39.953125 12.75 41 16.09375 41 21 L 41 21.347656 C 41 21.699219 41 22.078125 40.996094 22.519531 C 41 22.921875 41 23.300781 41 23.652344 Z M 41 23.652344 "/>
</g>
</svg>
