<svg xmlns="http://www.w3.org/2000/svg" width="150" height="150" data-name="Layer 1" viewBox="0 0 944 600.514"><path fill="#3f3d56" d="M76 354.95h186v174H76zm154 232h420v2H230z"/><path fill="#3f3d56" d="M338 589.45H0v-295h338zm-336-2h334v-291H2zm807-131.5c-74.44 0-135-60.56-135-135s60.56-135 135-135 135 60.56 135 135-60.56 135-135 135zm0-268c-73.34 0-133 59.66-133 133s59.66 133 133 133 133-59.67 133-133-59.66-133-133-133z"/><circle cx="805" cy="320.946" r="65" fill="#3f3d56"/><path fill="#ffb8b8" d="M413.29 477.84l6.52 36.74 20.14-8.9V472.5l-26.66 5.34z"/><path fill="#2f2e41" d="M442.32 496.8s-13.03 14.22-26.07 7.1l-1.77 61.63s-30.82 34.37-1.19 34.96 24.3-12.44 24.3-12.44v-7.7l3.55-6.52 2.96 1.19s8.3-10.08 7.7-14.82-1.18-11.26-1.18-11.26l-7.1-31.4z"/><path fill="#ffb8b8" d="M638.46 371.18l25.48 21.33-13.04 15.4-33.18-18.36 20.74-18.37z"/><path fill="#2f2e41" d="M643.2 405.55l15.4-19.56 24.3 18.37 29.04 15.4s32.58 11.86 24.88 23.12-25.48 7.7-25.48 7.7l-4.15-2.96-6.51-1.78 1.77 3.56-14.22-.6-9.48-11.26-7.7-10.07-12.45-11.85z"/><path fill="#ffb8b8" d="M362.92 134.75l-6.51 49.18-27.26 77.63s-29.04 40.88-8.3 42.07 21.33-37.92 21.33-37.92l35.56-64.6 9.48-63.99zm130.96 15.4l4.15 56.3 34.36 64.59s23.7 21.33 10.08 28.44-26.08-29.04-26.08-29.04l-40.88-57.47-6.52-59.85z"/><circle cx="455.361" cy="48.24" r="30.22" fill="#ffb8b8"/><path fill="#ffb8b8" d="M431.07 55.94s-5.34 32-27.85 37.33 39.7 23.11 57.47 6.52c0 0-11.25-10.67-1.77-24.3s-27.85-19.55-27.85-19.55z"/><path fill="#575a89" d="M488.54 112.83l-30.53-16.5s-17.8 12.24-50.22-4.6c0 0-40.72 3.32-40.13 8.65s-18.37 35.56-11.85 41.48 10.67-5.33 17.19 5.93 9.48 8.3 9.48 8.3-2.37 39.7 2.37 41.47 81.18-9.48 81.18-9.48 10.07 1.78 5.33-2.96-5.33-5.34-2.37-8.89 7.11-2.96 2.96-5.93a5.38 5.38 0 01-1.78-7.1s19.56-8.3 27.26-7.7-2.96-40.9-8.89-42.67z"/><path fill="#2f2e41" d="M386.63 195.78l-.6 22.52s-20.14 274.94 7.11 273.17 28.45-11.86 30.22-13.04 23.7 11.26 26.67-1.78 4.74-177.76 4.74-177.76 68.14 156.43 110.8 137.47 96.6-53.92 84.15-67.55-69.33-49.18-69.33-49.18-1.19-10.67-21.93-20.74l-67.55-69.33s1.78-2.37-2.37-5.33-4.14 2.37-5.33-5.34.6-4.74-2.96-8.3-2.96-.59-3.56-4.14.6-2.96-.59-4.15-5.93-6.52-5.93-6.52l-5.92-15.4s-66.96 3.55-77.62 15.4z"/><path fill="#575a89" d="M384.26 208.23l84.14-21.93 4.15 9.48-88.89 22.52.6-10.07z"/><path fill="#575a89" d="M394.33 212.97L389 240.82h7.1l5.34-29.04-7.11 1.19zm11.85-2.97a38.85 38.85 0 001.19 12.45c1.77 7.1 4.14 17.18 4.14 17.18s11.26-5.92 9.48-11.26-7.1-20.14-7.1-20.14z"/><path fill="#2f2e41" d="M451.95 46.98c1.8-2.61 1.01-6.24 2.29-9.13 2-4.55 7.94-5.49 12.9-5.78a38.02 38.02 0 019.88.26 9.48 9.48 0 016.73 5.14c.7 1.48.62-3.12.3-9.04a28.57 28.57 0 00-21.3-26.1l-.2-.04c-6-1.54-12.19-2.71-18.35-2.14s-12.35 3.08-16.3 7.84c-1.8 2.17-3.11 4.76-5.12 6.75-3.52 3.5-8.65 4.7-13.37 6.24-5.34 1.76-10.55 4.21-14.7 8.01s-7.14 9.07-7.36 14.68c-.26 6.55 3.75 13.42 10.44 14.87a7.54 7.54 0 013.18 1.47c6.3 5.13-1.15 10.16-1.23 15.76-.07 4.67 5.06 7.85 9.72 8.18a18.81 18.81 0 0019.09-14.43c.8-3.82.35-7.77-.02-11.65-.42-4.44 9.38-14.65 2.9-7.15a10.97 10.97 0 00-2.54 5.01c-1.2 6.09 4.31 8.28 7.73 11.75a14.53 14.53 0 013.16 15.04 16.75 16.75 0 003.56-21.08c-1.1-1.76-2.51-3.3-3.54-5.1-1.6-2.8-1.92-8.81 2.76-8.53 3.33.2 6.73 3.06 9.4-.83z"/><path fill="#ff6584" d="M635 176.32l-31.58 18.24-18.24-31.59 31.59-18.23z"/><path fill="#3f3d56" d="M170 193.32l-31.58 18.24-18.24-31.59 31.59-18.23z"/><path fill="#d0cde1" d="M572 521.32l-31.58 18.24-18.24-31.59 31.59-18.23z"/><path fill="#6c63ff" d="M152 424.95h34v34h-34z"/><circle cx="805" cy="320.946" r="16" fill="#6c63ff"/></svg>