<svg xmlns="http://www.w3.org/2000/svg" width="100" height="100" viewBox="0 0 944 600.514"><path fill="#3f3d56" d="M76 354.95h186v174H76zm154 232h420v2H230zM338 589.45H0v-295h338zm-336-2h334v-291H2zm807-131.5c-74.44 0-135-60.56-135-135s60.56-135 135-135 135 60.56 135 135-60.56 135-135 135zm0-268c-73.34 0-133 59.66-133 133s59.66 133 133 133 133-59.67 133-133-59.66-133-133-133z"/><circle cx="805" cy="320.946" r="65" fill="#3f3d56"/><path fill="#ffb8b8" d="M413.3 477.84l6.5 36.74 20.15-8.9V472.5l-26.66 5.34z"/><path fill="#2f2e41" d="M442.32 496.8s-13.03 14.22-26.07 7.1l-1.77 61.63s-30.82 34.37-1.2 34.96 24.3-12.45 24.3-12.45v-7.7l3.56-6.52 2.96 1.2s8.3-10.1 7.7-14.83-1.18-11.26-1.18-11.26l-7.1-31.4z"/><path fill="#ffb8b8" d="M638.46 371.18l25.48 21.33-13.04 15.42-33.18-18.37 20.74-18.37z"/><path fill="#2f2e41" d="M643.2 405.55L658.6 386l24.3 18.36 29.04 15.4s32.58 11.86 24.88 23.12-25.48 7.7-25.48 7.7l-4.15-2.96-6.52-1.78 1.77 3.56-14.22-.6-9.48-11.26-7.7-10.07-12.45-11.85z"/><path fill="#ffb8b8" d="M362.92 134.75l-6.5 49.18-27.27 77.63s-29.04 40.88-8.3 42.07 21.33-37.92 21.33-37.92l35.56-64.58 9.48-64zm130.96 15.4l4.15 56.3 34.36 64.6s23.7 21.32 10.07 28.43-26.08-29.04-26.08-29.04l-40.9-57.47-6.5-59.85z"/><circle cx="455.361" cy="48.24" r="30.22" fill="#ffb8b8"/><path fill="#ffb8b8" d="M431.07 55.94s-5.34 32-27.85 37.33 39.7 23.1 57.47 6.52c0 0-11.26-10.68-1.78-24.3s-27.85-19.56-27.85-19.56z"/><path fill="#575a89" d="M488.54 112.83L458 96.33s-17.78 12.24-50.2-4.6c0 0-40.73 3.32-40.14 8.65s-18.37 35.56-11.85 41.48 10.68-5.33 17.2 5.93 9.48 8.28 9.48 8.28-2.37 39.7 2.37 41.48 81.18-9.48 81.18-9.48 10.07 1.78 5.33-2.96-5.33-5.34-2.37-8.9 7.1-2.95 2.95-5.92a5.38 5.38 0 0 1-1.78-7.1s19.56-8.3 27.26-7.7-2.96-40.9-8.9-42.67z"/><path fill="#2f2e41" d="M386.63 195.78l-.6 22.52s-20.14 274.94 7.1 273.17 28.46-11.86 30.23-13.04 23.7 11.26 26.67-1.78 4.74-177.76 4.74-177.76 68.14 156.42 110.8 137.46 96.6-53.92 84.15-67.55-69.33-49.17-69.33-49.17-1.2-10.67-21.94-20.74l-67.55-69.34s1.8-2.37-2.36-5.33-4.14 2.37-5.33-5.34.6-4.75-2.95-8.3-2.96-.6-3.56-4.15.6-2.96-.6-4.15-5.93-6.52-5.93-6.52l-5.92-15.4s-66.96 3.55-77.62 15.4z"/><path fill="#575a89" d="M384.26 208.23l84.14-21.93 4.15 9.48-88.9 22.52.6-10.07zM394.33 212.97L389 240.82h7.1l5.34-29.04-7.1 1.2zm11.85-2.97a38.85 38.85 0 0 0 1.2 12.45c1.76 7.1 4.13 17.18 4.13 17.18s11.27-5.92 9.5-11.26-7.12-20.14-7.12-20.14z"/><path fill="#2f2e41" d="M451.95 46.98c1.8-2.6 1-6.24 2.3-9.13 2-4.55 7.93-5.5 12.9-5.78a38.02 38.02 0 0 1 9.87.26 9.48 9.48 0 0 1 6.73 5.14c.7 1.48.62-3.12.3-9.04a28.57 28.57 0 0 0-21.3-26.1l-.2-.04c-6-1.55-12.2-2.72-18.35-2.15S431.85 3.23 427.9 8c-1.8 2.16-3.1 4.75-5.12 6.74-3.52 3.5-8.65 4.7-13.37 6.24-5.33 1.76-10.54 4.2-14.68 8s-7.15 9.08-7.37 14.7c-.26 6.54 3.75 13.4 10.44 14.86a7.54 7.54 0 0 1 3.17 1.47c6.3 5.14-1.15 10.17-1.23 15.77-.07 4.67 5.06 7.85 9.72 8.18a18.8 18.8 0 0 0 19.1-14.43c.78-3.82.34-7.77-.03-11.65-.42-4.44 9.38-14.65 2.9-7.15a10.97 10.97 0 0 0-2.54 5c-1.2 6.1 4.3 8.3 7.72 11.76a14.53 14.53 0 0 1 3.16 15.04 16.75 16.75 0 0 0 3.56-21.08c-1.1-1.76-2.5-3.3-3.54-5.1-1.6-2.8-1.92-8.8 2.76-8.53 3.33.2 6.73 3.07 9.4-.82z"/><path fill="#ff6584" d="M635 176.32l-31.58 18.24-18.24-31.6 31.6-18.22z"/><path fill="#3f3d56" d="M170 193.32l-31.58 18.24-18.24-31.6 31.6-18.22z"/><path fill="#d0cde1" d="M572 521.32l-31.58 18.24-18.24-31.6 31.6-18.22z"/><path fill="#6c63ff" d="M152 424.95h34v34h-34z"/><circle cx="805" cy="320.946" r="16" fill="#6c63ff"/></svg>