<svg xmlns="http://www.w3.org/2000/svg" width="100" height="100" viewBox="0 0 984 768.91"><defs><linearGradient id="a" x1="-566.73" x2="-566.73" y1="642.19" y2="312.64" gradientTransform="translate(1295)" gradientUnits="userSpaceOnUse"><stop offset="0" stop-color="#808080" stop-opacity=".25"/><stop offset=".54" stop-color="#808080" stop-opacity=".12"/><stop offset="1" stop-color="#808080" stop-opacity=".1"/></linearGradient></defs><circle cx="22.57" cy="8.51" r="8.51" fill="#6c63ff"/><circle cx="50.53" cy="8.51" r="8.51" fill="#6c63ff"/><circle cx="78.49" cy="8.51" r="8.51" fill="#6c63ff"/><path fill="#3c354c" d="M0 28.66h783v1H0z"/><path fill="#3f3d56" d="M14.06 89.8h311.1v382.27H14.05z"/><path fill="#dddded" d="M457.85 194.37h311.1v382.27h-311.1z"/><path fill="url(#a)" d="M786.9 378.35c1-2.86 2.56-5.52 3.36-8.44 1.07-3.9.68-8.04.22-12.07a10.3 10.3 0 0 0-1.46-5c-1.36-1.86-3.74-2.63-5.57-4-4.46-3.35-5.08-9.55-6.64-14.87a35.87 35.87 0 0 0-11.64-17.55c-3.5-2.84-8.5-5.06-12.44-2.85-1.67.93-2.9 2.55-4.6 3.4-2.22 1.1-4.76.77-7.3.63a3.6 3.6 0 0 0-1.15-.92c-2.38-1.14-6.83.2-9.07 1.13a8.48 8.48 0 0 0-4.47 3.75 7.05 7.05 0 0 0-.5 1.4c-.3 1.2-.4 2.46-.76 3.66a10.35 10.35 0 0 1-1.25 2.55c-1.5 2.2-3.68 4.06-5.2 6.3a14.55 14.55 0 0 0-1.67 3.4 29.52 29.52 0 0 0-1.23 10.95c.2 5 .8 10-.4 14.85-.4 1.5-.93 3-1.38 4.44-.08.23-.17.5-.24.73l-.18.72c-.08.35-.16.7-.22 1.05-.12.72-.2 1.45-.24 2.2v1.1c0 .73 0 1.47-.1 2.2a16.58 16.58 0 0 1-.43 3.28 14.42 14.42 0 0 1-1.42 3.45c-.68 1.24-1.5 2.4-2.3 3.57l-2.67 3.9c-3.18-.26-6.42-.2-9.14 1.32a12 12 0 0 0-5.22 6.78 2 2 0 0 0-.6.35c-.56.46-1.16 2.1-1.74 4.2v.04c-1.18 4.28-2.25 10.38-2.6 11.74-.8 3-1.43 6.13-2 9.23-1.14 6.35-1.92 12.76-3 19.12-.22 1.3-1.65 9.9-3.06 14.84 0 .13-.06.25-.1.37-.55 1.85-1.08 3.1-1.54 3.1h1.4c-.25.6-.5 1.2-.7 1.8a37.73 37.73 0 0 0-1.14 3.85.3.3 0 0 0 0 .08 75.9 75.9 0 0 0-1.67 12.18 498.8 498.8 0 0 0-.2 71.7 36.6 36.6 0 0 0 1.8 10.42 15.14 15.14 0 0 0 2.8 4.7l.18.2c-.1.47-.2.93-.32 1.4q-5 22.12-11.7 43.83c-.1.3-.2.63-.3.94-.27.9-.55 1.8-.83 2.7-.17.58-.35 1.16-.5 1.75-.13.38-.23.76-.33 1.12a51.33 51.33 0 0 0-1.6 8 52.82 52.82 0 0 0 .8 15h31.87c0-.22-.07-.43-.1-.65-.6-4.46-1.36-9.1.06-13.36.9-2.75 2.65-5.13 4.1-7.64 3-5.17 4.67-11 7.4-16.27 4-7.7 10.1-14.4 12.93-22.5q.44-1.28.77-2.6c1.94 5.76 1.93 11.6 2.3 17.67a221.25 221.25 0 0 0 7.45 45.35h32.17c-.54-8.42-1.3-16.85-1.76-25.24a65.4 65.4 0 0 1 .27-13.78 71.08 71.08 0 0 1 2.53-9.82c3.63-11.64 7.47-23.33 8.67-35.45s2.06-29.24-4.6-39.48a3.37 3.37 0 0 0-.44-.55 9.18 9.18 0 0 0 0-2.77c-1.8-16.67-11.35-32.67-8.6-49.22a62.87 62.87 0 0 1 3.92-12.64c4.06-10.25 8.58-20.76 11.06-31.43a48.13 48.13 0 0 0 2.34-9.23 51.22 51.22 0 0 0 .76-8.4 19.6 19.6 0 0 0-.27-3.18c3.33 1.15 6.6 3.43 10.13 3.88a8.8 8.8 0 0 0 .9.08 1.32 1.32 0 0 1-.1-.2 4.4 4.4 0 0 1-.68-2.18 6.72 6.72 0 0 0 1.9.15 7.27 7.27 0 0 0 3.53-1.1 22.2 22.2 0 0 1-6.26-23.18zm-97 149.53c-.55 1.14-1 2.3-1.5 3.47v-.13a27.58 27.58 0 0 1-.94-14.48c.08-.3.15-.6.22-.9s.2-.75.3-1.14a10.62 10.62 0 0 0 5.3 7c-.3.47-.6.93-.87 1.4a53.46 53.46 0 0 0-2.56 4.78zm4.46-33.07c-.9 1.8-2 3.46-3.1 5.17a215.54 215.54 0 0 0 3.3-26.68c.1-1.46.17-2.92.23-4.37a62 62 0 0 1 1.4 10.18c.36 4.5.7 9.14-.8 13.38a17.43 17.43 0 0 1-1.1 2.33z" transform="translate(-108 -65.54)"/><path fill="#192534" d="M621.24 254.9a8.33 8.33 0 0 0-4.4 3.73c-.76 1.56-.73 3.38-1.24 5-1.08 3.48-4.32 5.77-6.33 8.8-2.73 4.1-3 9.35-2.87 14.3s.8 10-.4 14.75c-.6 2.33-1.6 4.56-2 6.93-.5 2.9-.1 5.9-.8 8.73a22.52 22.52 0 0 1-3.67 7l-6.4 9.36a73.18 73.18 0 0 0 8.45-2.56 15.16 15.16 0 0 1-4.56 6.9l4.62-5.6a13.14 13.14 0 0 1 3.44-3.25c1.7-1 3.7-1.13 5.6-1.5 3.68-.76 7.34-2.64 9.14-5.93 2.4-4.4.86-9.9 2.2-14.73 1-3.52 3.4-6.42 5.05-9.67 3.78-7.34 3.55-16 4.73-24.17a75.06 75.06 0 0 0 1.3-10.43c0-2.6-.26-7.52-3-8.83-2.3-1.1-6.68.23-8.86 1.16zm41.86 238.72c-1.18 12.05-5 23.67-8.52 35.24a68.75 68.75 0 0 0-2.48 9.76 66 66 0 0 0-.27 13.7c.45 8.1 1.16 16.22 1.67 24.33h-31.78a223 223 0 0 1-7.13-44.3c-.34-5.52-.35-10.86-1.82-16.12-.13-.5-.28-1-.44-1.47-2.24 9.23-9.17 16.5-13.47 25-2.7 5.27-4.36 11-7.28 16.17-1.43 2.5-3.15 4.87-4 7.6-1.4 4.2-.67 8.77-.07 13.16h-31.38a51.62 51.62 0 0 1-.7-14.15 56.57 56.57 0 0 1 2.18-10c.16-.6.34-1.17.5-1.75.3-.9.57-1.8.84-2.7q6.8-22.24 11.84-45c.1-.48.22-1 .32-1.44q.86-3.9 1.66-7.8c1.83-8.96 3.58-18.2 6.9-26.65.2-.5.4-1 .63-1.52.48-1.13 1-2.25 1.54-3.34a49.74 49.74 0 0 1 2.62-4.67 43.5 43.5 0 0 1 2.95-4.15c17.58-1.52 35.82-10.3 53-6.22a25.17 25.17 0 0 1 8.07 3.3c2.94 1.9 7.5.8 9.72 3.22a4.7 4.7 0 0 1 .4.55c6.52 10.18 5.68 27.2 4.5 39.25z"/><path fill="#ffc1c7" d="M618.4 313.73c-.37 4.3-1.27 9.36-5.18 11.16-2.2 1-4.8.64-7.2 1-4.53.73-8.25 4.22-10.36 8.3s-2.82 8.73-3.3 13.3c-.62 5.72-.82 11.93 2.32 16.75 2.54 3.9 6.93 6.28 11.43 7.5a31.88 31.88 0 0 0 26.63-4.95 59.82 59.82 0 0 0 9.8-9.68c6.52-7.6 13.1-15.9 14.42-25.83.16-1.14.15-2.5-.78-3.17a3.4 3.4 0 0 0-2.1-.4l-6.25.1c-1.6 0-3.38 0-4.45-1.2s-1-2.7-1-4.15l.48-18.13a2.56 2.56 0 0 0-.4-1.83 2.4 2.4 0 0 0-1.45-.62c-3.44-.58-7 0-10.42-.94-3.2-.88-8.24-4.57-10.6-.78-1.98 3.28-1.24 9.9-1.57 13.55z"/><path d="M618.4 313.73c-.37 4.3-1.27 9.36-5.18 11.16-2.2 1-4.8.64-7.2 1-4.53.73-8.25 4.22-10.36 8.3s-2.82 8.73-3.3 13.3c-.62 5.72-.82 11.93 2.32 16.75 2.54 3.9 6.93 6.28 11.43 7.5a31.88 31.88 0 0 0 26.63-4.95 59.82 59.82 0 0 0 9.8-9.68c6.52-7.6 13.1-15.9 14.42-25.83.16-1.14.15-2.5-.78-3.17a3.4 3.4 0 0 0-2.1-.4l-6.25.1c-1.6 0-3.38 0-4.45-1.2s-1-2.7-1-4.15l.48-18.13a2.56 2.56 0 0 0-.4-1.83 2.4 2.4 0 0 0-1.45-.62c-3.44-.58-7 0-10.42-.94-3.2-.88-8.24-4.57-10.6-.78-1.98 3.28-1.24 9.9-1.57 13.55z" opacity=".1"/><circle cx="634.16" cy="288.66" r="23.9" fill="#ffc1c7"/><path fill="#f2f2f2" d="M608.52 355.1c-3.86.1-8.22-1-10.1-4.38-1.27-2.32-1.05-5.14-.8-7.77l1.38-14.72c-3.75-.4-7.78-.73-11.06 1.13-4.34 2.46-5.9 7.92-6.4 12.9-.9 9.32.57 18.74.06 28.1-.43 7.88-2.24 16 .07 23.5 1 3.14 2.62 6 3.67 9.15a51 51 0 0 1 2 12.32c.36 4.46.7 9.07-.8 13.3-1.24 3.53-3.67 6.5-5.4 9.82-2.86 5.48-3.47 12.86.8 17.3 3.92 4.08 10.4 4.25 15.9 3s10.76-3.73 16.4-4c9.93-.4 18.8 6 28.52 8.13a8.65 8.65 0 0 0 4 .14 9.73 9.73 0 0 0 3.2-1.74l5.32-3.82a7.38 7.38 0 0 0 2.57-2.6 6.83 6.83 0 0 0 .33-3.74c-1.78-16.57-11.16-32.5-8.45-48.94a63.93 63.93 0 0 1 3.85-12.56c6.75-17.26 14.84-35.2 12.22-53.55-.58-4.06-1.77-8.22-4.57-11.22s-7.53-4.5-11.16-2.58-4.94 6.2-6.5 9.93a45.7 45.7 0 0 1-14.24 18.28c-2.64 2-5.82 4.6-9.27 4.7-3.76.13-7.7-.12-11.54-.05z"/><path fill="#ffc1c7" d="M573.86 392.24c-5.8 6.43-6.93 15.7-7.57 24.33a503.2 503.2 0 0 0-.2 71.28 36.18 36.18 0 0 0 1.77 10.35c1.23 3.3 3.55 6.34 6.8 7.65 2.1.84 5 .62 6-1.43.88-1.88-.4-4-1.4-5.8a21.07 21.07 0 0 1-2.1-13.7c1.2.9 1.6 2.44 1.94 3.88l1.88 8c2.57-.38 3.53-3.5 3.94-6.07.75-4.64 1.47-9.57-.4-13.88-1-2.3-2.64-4.26-3.63-6.55-2.5-5.78-3.5-12.38-1.9-18.47a216.12 216.12 0 0 0 7-63 26.78 26.78 0 0 1-12.14 3.4z"/><path fill="#f2f2f2" d="M568.4 398.74a88.17 88.17 0 0 1 21.13 2.8c.9-4.5.47-9.17 0-13.74l-3-31.42c-.22-2.34.2-23.7-4.3-19.93-1.66 1.4-3.75 13.9-4.27 15.9-.78 3-1.4 6.1-2 9.17-1.12 6.32-1.9 12.7-3 19-.26 1.84-2.96 18.23-4.57 18.22z"/><path fill="#192534" d="M625.05 258.28a4.12 4.12 0 0 1 .5-2.14 3.62 3.62 0 0 1 2.55-1.36c3.45-.53 7.23.86 10.35-.72 1.7-.85 2.88-2.45 4.53-3.38 3.88-2.2 8.78 0 12.22 2.85a35.6 35.6 0 0 1 11.46 17.45c1.52 5.28 2.14 11.45 6.52 14.78 1.8 1.38 4.15 2.14 5.47 4a10.2 10.2 0 0 1 1.45 5c.45 4 .83 8.13-.22 12-.8 2.9-2.35 5.54-3.3 8.4a22.24 22.24 0 0 0 6.06 23.16 7.14 7.14 0 0 1-5.35.93 4.6 4.6 0 0 0 .77 2.36c-5.6-.16-10.46-5.6-15.93-4.42-4.17.9-6.5 5.22-9.62 8.14-4 3.78-10.25 5.36-15.3 3.12s-8.1-8.6-6-13.68c2.44-5.8 9.95-8.07 12.56-13.8 2-4.42.52-9.58.95-14.43.37-4.16 2.17-8 3.3-12.06s1.47-8.62-.8-12.12c-2.42-3.7-7-5.16-11.27-6.54-9.44-3.12-11.27-7.9-10.9-17.52z"/><path fill="#ffc1c7" d="M630.92 344.18c-.68-3.34-1.35-6.9-.15-10.07 2.23-5.93 9.54-7.78 14.6-11.6a19.76 19.76 0 0 0 6.5-8.66c.92-2.42 1-5.73-1.22-7a5.4 5.4 0 0 0-2.82-.5c-7.88.2-15.1 4.48-21.14 9.54-3.53 2.95-6.87 6.33-8.62 10.57a35.2 35.2 0 0 0-2 9.5l-1.23 10.72a163.5 163.5 0 0 0-1.43 18.5 83.3 83.3 0 0 0 .66 10.58c.32 2.5.8 5.07 2.25 7.12 2.73 3.8 8 4.66 12.66 4.8a21.83 21.83 0 0 0 5.3-.34c7.77-1.7 13.68-12.6 7.8-19.34-2.52-2.87-6.28-2.94-7.7-6.87-1.9-5.2-2.4-11.5-3.48-16.95z"/><path fill="#f2f2f2" d="M637.25 346.05l-6.15 10.05a4.52 4.52 0 0 0-.75 1.73c-.17 1.3.8 2.46 1.58 3.53 5.3 7.23 4 17.2 2.36 26a47.18 47.18 0 0 0 32.44-38.22c.78-5.25 2-13.9-2.64-17.33-11.23-8.22-21.58 5.66-26.85 14.25z"/><path fill="#192534" d="M606 325.92c2.4-.38 5 0 7.2-1 3.9-1.8 4.8-6.86 5.18-11.16 0-.4.06-.83.07-1.3a34.82 34.82 0 0 0-4.54-4 22.74 22.74 0 0 0-4.64-2l-4.26-1.55a25.14 25.14 0 0 0-1 3.56c-.5 2.88-.08 5.9-.8 8.72a22.52 22.52 0 0 1-3.66 7l-6.4 9.36c1.17-.28 2.3-.6 3.46-.92a14.4 14.4 0 0 1 9.4-6.7z"/><path fill="#ffc1c7" d="M760.63 465.08S719 444.7 727 460.2s33.63 17.26 33.63 17.26z"/><path fill="#192534" d="M720.33 450.46l-1.33 2.66 31.44 16.38 1.33-2.65-31.44-16.4z"/><path fill="#6c63ff" d="M789.4 464.2s-2.65 6.64-12.83 2.65a47.5 47.5 0 0 0-18.16-3.54s-6.63 13.3 0 18.16 34.55 13.3 35.44 8.42-4.43-25.7-4.43-25.7z"/><path d="M789.4 464.2s-2.65 6.64-12.83 2.65a47.5 47.5 0 0 0-18.16-3.54s-6.63 13.3 0 18.16 34.55 13.3 35.44 8.42-4.43-25.7-4.43-25.7z" opacity=".1"/><circle cx="810" cy="359.01" r="27.9" fill="#ff6584"/><path fill="#6c63ff" d="M789.2 411.27v-4.87s6.63-8.4 14.16-2.65-4 25.68-4 25.68l-8.36-4.87z"/><path fill="#ffc1c7" d="M813.77 739.78l-8.42 9.75s15.06 3.54 15.5 4 15.5-1.33 15.5-1.33L835 736.68zm31.88-9l4 16.83 17.27-4 8.86-13.72s-6.2-4.43-8-8.86-22.13 9.76-22.13 9.76z"/><path fill="#3f3d56" d="M847.87 599.85l-1.77 28.78a22.3 22.3 0 0 0-1.33 15.06c2.2 8.4 1.33 43.83 1.33 43.83s-3.1 48.7-4 51.8-4 4.44-1.77 7.1c0 0-29.67 6.64-29.23-4.43 0 0 4-7.53 4-14.6s1.33-46.07 1.33-46.07l10.62-99.64z"/><path d="M847.87 599.85l-1.77 28.78a22.3 22.3 0 0 0-1.33 15.06c2.2 8.4 1.33 43.83 1.33 43.83s-3.1 48.7-4 51.8-4 4.44-1.77 7.1c0 0-29.67 6.64-29.23-4.43 0 0 4-7.53 4-14.6s1.33-46.07 1.33-46.07l10.62-99.64z" opacity=".1"/><path fill="#3f3d56" d="M801.37 526.63s-12.4 73.52-12 97 6.64 36.75 6.64 36.75l33.23 45.17a7.83 7.83 0 0 0 .88 7.53c2.67 4 3.56 7.1 3.56 9.74s5.3 4.43 7.08 8 6.64 13.73 18.16 5.76 15.5-11.07 13.28-17.27-7.08-10.17-7.52-13.27-10.15-10.67-11.48-19.57-23.9-45.17-23.9-45.17 22.57-45.18 23.46-53.6 3.54-12 3.54-12 13.73-26.12 6.2-38.07-61.1-11-61.1-11zm19.48 224.67s-12-1.77-12-8.42l-16.4 9.3s-32.32 1.33-18.6 12.4 74-3.54 74-3.54-4.4-14.58-8.85-15.94c0 0-8 6.64-18.15 6.2z"/><path d="M820.85 751.3s-12-1.77-12-8.42l-16.4 9.3s-32.32 1.33-18.6 12.4 74-3.54 74-3.54-4.4-14.58-8.85-15.94c0 0-8 6.64-18.15 6.2z" opacity=".1"/><path fill="#3f3d56" d="M874.88 727.68s-12.88 18.16-24.36 13.3c0 0-6.68-6.82-9.1-3s-7.72 14.46-13.48 15.8-26.13 8-6.2 13.28 57.57-12.4 61.1-19.5-7.96-19.88-7.96-19.88z"/><path fill="#ffc1c7" d="M793 395.7a33.86 33.86 0 0 1 3.7 6.8 11 11 0 0 1 .17 7.58c-.43 1.13-1.12 2.15-1.57 3.27a11 11 0 0 0 .24 8.12 20 20 0 0 0 4.83 6.7 4.16 4.16 0 0 0 2.22 1.35 3.6 3.6 0 0 0 3.06-1.66c2-2.54 2.4-5.92 3.08-9.07s1.85-6.55 4.64-8.17a13.1 13.1 0 0 1 4.92-1.3l6.3-.82a5.54 5.54 0 0 0 3.23-1.14c1.27-1.23 4.52 2.68 3.47 1.26s-6.18-8.37-7.74-9.2a9.63 9.63 0 0 1-4.06-3.3 10.44 10.44 0 0 1-1-4.93c-.14-3.2-.43-6.53-2.13-9.23a13.33 13.33 0 0 0-8.05-5.4 39.56 39.56 0 0 0-9.85-.88 16 16 0 0 0-6.17.75 6.94 6.94 0 0 0-3.13 2.42c-1.4 2-3 5.46-2 7.84 1.32 3.16 3.93 6.15 5.83 9z"/><circle cx="802.25" cy="367.21" r="25.68" fill="#ffc1c7"/><path fill="#6c63ff" d="M835.9 412.82a17.14 17.14 0 0 0-17.3-9.67c-7.34.8-15.4 2.75-16.35 7.46-1.77 8.87-4.87 18.6-4.87 11.08s-.17-12.87-.17-12.87-6.9-5.72-8.23-2.18-2.66 17.27-2.22 27 .9 39.85.9 39.85.88 30.12 3.53 38.1a39.15 39.15 0 0 1 1.33 16.37s-3.53 3.55 4.88 4.87 12.85-6.2 26.57 3.1 43.85 14.18 45.17 8-8.4-31.88-5.75-50.92-27.46-80.16-27.46-80.16z"/><path fill="#ffc1c7" d="M806.68 525.3s-6.64 10.63-8.85 11.08-3.1 4.87 2.2 2.65 3.55-2.2 3.55-2.2-4.43 7.08 3.1 8.4 11.52 2.23 11.52-1.77-.9-14.6-.9-14.6z"/><path d="M808.9 410.6a27.4 27.4 0 0 0-3.1 27.47c6.64 15.94 22.14 43.84 22.14 43.84s7.08 4 4 7.1-3.54 2.2-5.75 4.86S808.46 516 808.46 516s-8.85 5.32-6.2 11.52 13.3 8.86 13.3 8.86a7.63 7.63 0 0 1 8-4.87c6.2.45 17.26-8.85 17.26-8.85s17.27-29.67 19-32.77 4-4 .9-12-25.73-64.6-35.45-67.27-16.38 0-16.38 0z" opacity=".1"/><path fill="#8f8dc4" d="M810.67 409.72a27.42 27.42 0 0 0-3.1 27.46c6.64 15.94 22.14 43.84 22.14 43.84s7.1 4 4 7.1-3.54 2.2-5.75 4.86-17.7 22.14-17.7 22.14-8.87 5.3-6.2 11.5 13.26 8.84 13.26 8.84a7.64 7.64 0 0 1 8-4.87c6.2.43 17.28-8.87 17.28-8.87s17.27-29.67 19.05-32.77 4-4 .88-11.95-25.67-64.65-35.42-67.3-16.4.02-16.4.02z"/><circle cx="816.87" cy="361.01" r="26.79" fill="#ff6584"/><ellipse cx="942.58" cy="403.3" fill="#ff6584" rx="8.64" ry="13.73" transform="rotate(-42.44 804.095 509.597)"/><ellipse cx="792.29" cy="346.62" fill="#ff6584" rx="19.04" ry="8.86"/><ellipse cx="796.28" cy="372.97" fill="#ffc1c7" rx="3.99" ry="5.98"/><path fill="#3c354c" d="M698 767.9h286v1H698z"/><path fill="#a0616a" d="M260.06 334.46c-6.1 2.32-20.32 2.58-26.62 2.57h-3.1l-4.06-8.23 4.05-6.87s3.7-1 8.64-1.9c7.28-1.32 17.24-2.35 22 .6 7.94 4.83 7.03 10.76-.9 13.83z"/><path d="M233.44 336.98h-3.1l-4.06-8.23 4.05-6.87s3.7-1 8.64-1.9c-3.97 2.92-13.62 9.3-5.53 17z" opacity=".1"/><path fill="#192534" d="M166.42 235.83l1.8-2.05s9.18 14.55 10.15 20 2.2 11.8 2.2 11.8 2.33 7.15 3.84 10.3 2.9 6.18 3 7.56-.54 4.4 2.34 6.3 3.57 7.15 3.57 7.15 10.45 10.15 15.94 10.43 21.28 3 20.73 5.76 6.6 4.4 9.47 5.07-18.53 8.93-6 19.5c0 0-8 1.65-8.8 3.57s-9.18-1.1-9.18-1.1-1.8-4.26-8-4.53-9.33-3-9.33-3.42-6.18-3.85-9.6-4.8-8-1.38-8.12-2.34-20.58-89.25-20.58-89.25z"/><path d="M166.42 235.83l1.8-2.05s9.18 14.55 10.15 20 2.2 11.8 2.2 11.8 2.33 7.15 3.84 10.3 2.9 6.18 3 7.56-.54 4.4 2.34 6.3 3.57 7.15 3.57 7.15 10.45 10.15 15.94 10.43 21.28 3 20.73 5.76 6.6 4.4 9.47 5.07-18.53 8.93-6 19.5c0 0-8 1.65-8.8 3.57s-9.18-1.1-9.18-1.1-1.8-4.26-8-4.53-9.33-3-9.33-3.42-6.18-3.85-9.6-4.8-8-1.38-8.12-2.34-20.58-89.25-20.58-89.25z" opacity=".05"/><path fill="#192534" d="M210.42 472.08H168c-2.2-3.94-4-7.86-3.62-9.2.92-3-.42-7.8-.42-7.8s-1.32-2.3-2.92-5c-1.95-3.35-4.3-7.36-5.1-8.6-1-1.6-3.45-8.36-4.8-12.25-.6-1.65-1-2.8-1-2.8s-1.66 30.28-3.1 33.37c-.62 1.33-1.4 6.66-2 12.28h-33.3a11.86 11.86 0 0 0-.9-2.8c-1.53-3 1.55-13.3 1.55-13.3s-3-20-2.9-23.05-2.56-12.26-2.56-12.26-2.68-4.73-2.06-6.18-2.06-5.15-1.34-6.8-.62-6.7-2-9.68c-.7-1.53-1.53-5.75-2.2-9.5-.08-.4-.15-.82-.22-1.22-.5-3-.87-5.45-.87-5.45l5.42-4.37.23-.2 11.34-9.12 15.45-4.05.93-.24 26-6.82 11.13-3.58 3.12-1 1.78-.58 15.55 24.5s1.34 2.12 2.65 4.73l.4.8c1.2 2.55 2.3 5.4 2.1 7.15a9.85 9.85 0 0 0 1.45 6.4s9.27 29.36 9.06 37.8 3.3 27 3.3 27 2.25 7 2.26 11.83z"/><path fill="#a0616a" d="M147 236.86c-.66-.27-45.45-18.77-39.28-22.44 3.66-2.2 8.16-11.43 11.25-18.67 2.16-5.06 3.62-9.14 3.62-9.14s35.94-6.37 23.07 15.67a40.56 40.56 0 0 0-4.53 10.85c-3.7 15 5.54 23.46 5.86 23.74z"/><path d="M145.65 202.27a40.56 40.56 0 0 0-4.53 10.85 25.12 25.12 0 0 1-21.23-14.92 24.24 24.24 0 0 1-.95-2.45c2.16-5.06 3.62-9.14 3.62-9.14s35.95-6.37 23.08 15.67z" opacity=".1"/><path fill="#a0616a" d="M168 187.23a25.1 25.1 0 1 1-1-7 25.13 25.13 0 0 1 1 7z"/><path d="M192.24 381.9c-2.63 2.4-3.65 6.95-3.65 6.95s-12.36 8.45-11.54 3.1-6.38-27-6.38-27l.82 29.5s-39.54-1.84-42.42-4.72-19.77-8.45-19.77-8.45-5.16 4.15-9.92 7.3c-.63-3.55-1.1-6.68-1.1-6.68l17-13.7 42.43-11.12 16-5.15 15.56 24.5a62.45 62.45 0 0 1 2.98 5.48z" opacity=".1"/><path fill="#f2f2f2" d="M193.54 379.58c-3.3 2.06-4.53 7.62-4.53 7.62s-12.35 8.45-11.53 3.1-6.38-27-6.38-27l.8 29.44s-39.53-1.85-42.4-4.73-19.78-8.44-19.78-8.44-14.62 11.74-17.3 10.7 4.73-21 4.73-21l7.62-117s-2.05-34.8 1-36a4.25 4.25 0 0 0 1.3-.8c2-1.83 2.65-5.54 2.82-8.66.2-3.7 5.14-1.86 5.14-1.86l-2.88 3.7 25.52 15.53.22.13a29.34 29.34 0 0 1 3.07-1.4c2.26-.86 5.26-1.67 7.23-.86a6.94 6.94 0 0 1 2.7 2.43 30.5 30.5 0 0 1 3.48 7l9.26 15.65s4.74 20.8 4.74 21.63 1.44 19.77 3.1 21.83 3.3 12.35 2.67 15.44 1 14.62 1 14.62c6.8 5.56 10.3 24.5 10.3 24.5s10.7 21.22 11.53 23.7-.15 8.68-3.44 10.74z"/><path d="M137.7 225c-2.5 3.7-9.72 8.9-9.72 8.9L107.1 216.3c2-1.83 2.65-5.54 2.82-8.66.2-3.7 5.15-1.85 5.15-1.85l-.6.77a3.32 3.32 0 0 0 .9 4.87z" opacity=".1"/><path fill="#f2f2f2" d="M137.7 224.17c-2.5 3.7-9.72 8.92-9.72 8.92l-20.88-17.64c2-1.83 2.65-5.54 2.82-8.66.2-3.7 5.15-1.86 5.15-1.86l-.6.77a3.32 3.32 0 0 0 .9 4.88z"/><path d="M147.36 226.94c-2.7 3.23-6.5 6.88-6.34 5s-2.28-5.88-3.84-7.7a11.37 11.37 0 0 1 7.48.22 6.94 6.94 0 0 1 2.7 2.48z" opacity=".1"/><path fill="#f2f2f2" d="M147.77 225.7c-2.7 3.23-6.5 6.9-6.34 5.06s-2-4.8-3.6-6.6c2.27-.88 5.27-1.7 7.24-.9a6.9 6.9 0 0 1 2.7 2.45z"/><circle cx="141.02" cy="241.19" r="1.65" fill="#192534"/><circle cx="153.51" cy="285.67" r="1.65" fill="#192534"/><circle cx="167.66" cy="330.7" r="1.65" fill="#192534"/><circle cx="168.07" cy="379.72" r="1.65" fill="#192534"/><circle cx="148.3" cy="262.19" r="1.65" fill="#192534"/><circle cx="159.42" cy="307.91" r="1.65" fill="#192534"/><circle cx="170.27" cy="352.81" r="1.65" fill="#192534"/><circle cx="167.79" cy="385.21" r="1.65" fill="#192534"/><path d="M107.1 216.46s.28-2.48-3.3 1.78-10.28 8-10.28 8-15.24 10.7-16.07 15.66-5.76 26.36-3.16 33.5 22.5 41.32 22.5 41.32-5.2 6.18-4 13.46 2.76 17.3 2.07 19.5.82 7.68-1.5 9.6-4.82 5.22 2.46 9.62c0 0 1.37 3.7.14 4.53s18.26 9.33 25.95 4.8 21.55-40.78 21.83-48.88-4.24-34.9-6.75-41.2-9.9-30.9-13-36.4-16.9-35.3-16.9-35.3z" opacity=".1"/><path fill="#192534" d="M106.28 216.46s.28-2.48-3.3 1.78-10.3 8-10.3 8-15.23 10.7-16.05 15.66-5.77 26.36-3.16 33.5S96 316.7 96 316.7s-5.22 6.18-4 13.46 2.74 17.3 2.06 19.5.82 7.68-1.5 9.6-4.82 5.22 2.46 9.62c0 0 1.37 3.7.13 4.53s18.26 9.34 26 4.8 21.56-40.77 21.83-48.87-4.25-34.87-6.72-41.2-9.9-30.88-13.05-36.37-16.92-35.3-16.92-35.3z"/><path d="M100.8 239.82s11.8 13 11.4 21.7c0 0 .13-14-11.4-21.7zm16.33 21.4c0 .43 8 30.08 7.55 33.8S127 309.7 127 309.7l3.7-1s-2.88-15.24-3.43-20.87-10.14-26.6-10.14-26.6zm3.16 84.6c-.3.4-18.82 21.4-13.6 22.92s13.6-22.93 13.6-22.93zm-15.25-5.36c-.4.28-7.4 15.1-8.24 11.13s6 10.83 7.15-.15zm35.6-119.32s7.65-4.68 17.26 7.32c0 0 7 4 9.07 4.94s4.4 26.5 4.4 26.5 4.52 11 3.3 17.3 3.56 28 3.56 28 8 39 7.7 40.1-8.1-12.23-8-18.82-6.6-27.18-7.56-28.42-7.55-36.52-7.55-36.52-5.35-15-8.8-19.9-7.67-14.3-9.46-15.94a18.08 18.08 0 0 0-4.26-2.74z" opacity=".1"/><path fill="#192534" d="M140.54 221.14s8.58-4.66 18.2 7.28c0 0 7 4 9.05 4.94s4.4 26.5 4.4 26.5 4.52 11 3.28 17.3 3.57 28 3.57 28 8 39 7.7 40.1-8.1-12.23-8-18.82-6.6-27.18-7.56-28.42-7.57-36.52-7.57-36.52-5.35-15-8.78-19.9-7.7-14.3-9.48-15.94a17 17 0 0 0-5.08-2.74z"/><path fill="#a0616a" d="M178.23 306.95s16.34-10.7 24.23-5.42 20.8 12.77 8.1 18.2-30.27 4.4-30.27 4.4z"/><path d="M166.87 410.27c-2.44 5.23-4.44 31.47-5.8 39.8-1.96-3.35-4.32-7.35-5.12-8.6-1-1.6-3.44-8.35-4.8-12.24 1.55-3.77 5.85-14.58 5.85-18.55 0-4.84 7.83-10.9 7.83-10.9a9.08 9.08 0 0 1 2.04 10.5zm.13-230a6.18 6.18 0 0 1-1.22.5c-1.93.53-3.82-.77-5.54-1.8s-4.08-1.82-5.56-.47c-1.94 1.75-.54 5.5-2.53 7.2-1.27 1.1-3.27.72-4.68 1.6s-1.82 2.82-2.18 4.5-1.07 3.57-2.7 4.06-3.16-.58-4.78-.52c-.33 0-.72.05-1-.2a1.07 1.07 0 0 1-.16-.74 15.9 15.9 0 0 0-.52-6 5.68 5.68 0 0 0-4.18-3.9c-2.9-.46-5.33 2.07-7 4.45a73.66 73.66 0 0 0-4.87 7.84c-.08.13-.16.32-.25.54A25.13 25.13 0 1 1 167 180.27z" opacity=".1"/><path fill="#192534" d="M125 188.58c1.7-2.38 4.13-4.9 7-4.46a5.7 5.7 0 0 1 4.18 3.9 15.9 15.9 0 0 1 .52 6 1 1 0 0 0 .17.76c.22.24.6.2.94.2 1.62-.07 3.23 1 4.78.5s2.34-2.38 2.7-4.06.73-3.57 2.18-4.48 3.4-.52 4.68-1.6c2-1.7.58-5.46 2.52-7.22 1.5-1.34 3.86-.57 5.57.47s3.6 2.33 5.54 1.8a19.27 19.27 0 0 0 1.88-.8c3.05-1.15 7 .82 9.52-1.27a7.34 7.34 0 0 0 1.9-3.3 21 21 0 0 0 1.4-5.24 7 7 0 0 0-1.4-5.12c-1.64-1.93-4.4-2.4-6.5-3.83a16 16 0 0 1-4.13-4.88 18.14 18.14 0 0 0-4-5c-1.7-1.3-4.13-1.92-6-.95a6.83 6.83 0 0 1-2 .94 4 4 0 0 1-2.18-.6c-7.15-3.36-15.46-2.77-23.3-1.77a30.4 30.4 0 0 0-9.16 2.2 11 11 0 0 0-6.2 6.8c-.63 2.4-.14 5-.9 7.42-.53 1.62-1.6 3-2.2 4.6-1.68 4.33.32 9.1 1.17 13.68.92 5 .45 10.4 2.58 15.13.42.93.88 2.56 1.93 1.94.78-.45 1.53-3.1 2-3.9a75.32 75.32 0 0 1 4.82-7.9z"/><path d="M79.8 269.06l-3.72 10.57s8.8 32.68 12.9 39.54 10.17 15.66 10.17 15.66a37.64 37.64 0 0 0 22 2.74c11.8-2.33 46.27-8.5 46.27-8.5s2.9.54 4.4-1.66 9.33-3.28 9.33-3.28 9.06-13.18-2.06-18.68c0 0-1.38 3-7.28 1s-7.7 1.64-7.7 1.64-9.6 1.93-15 1.24-18.66-1-20-2.06a1.76 1.76 0 0 0-2.47.14s-3.3-1.24-4.4-2.47-2.6 1.37-2.6 1.37-1.92-1.1-1.37-2.47-1.8-6.6-1.8-6.6a13.5 13.5 0 0 1-.4-6.17c.7-2.75-3.43-12.63-3.43-12.63a17.24 17.24 0 0 1 .55-4.95c.7-2.47-5.22-7.4-5.22-7.4s-5.76-28-18-18.82-10.2 21.8-10.2 21.8z" opacity=".1"/><path fill="#192534" d="M79 269.06l-3.7 10.57s8.78 32.68 12.9 39.54 10.16 15.66 10.16 15.66a37.67 37.67 0 0 0 22 2.74c11.8-2.33 46.27-8.5 46.27-8.5s2.88.54 4.4-1.66 9.33-3.28 9.33-3.28 9.06-13.18-2.06-18.68c0 0-1.37 3-7.28 1s-7.7 1.64-7.7 1.64-9.6 1.93-15 1.24-18.66-1-20.04-2.06a1.75 1.75 0 0 0-2.47.14s-3.28-1.24-4.38-2.47-2.6 1.37-2.6 1.37-1.93-1.1-1.38-2.47-1.8-6.6-1.8-6.6a13.34 13.34 0 0 1-.4-6.17c.7-2.75-3.43-12.63-3.43-12.63a17.24 17.24 0 0 1 .56-4.95c.68-2.47-5.22-7.4-5.22-7.4s-5.77-28-18-18.82S79 269.06 79 269.06z"/><path d="M168.2 313.27c-.13 1-3.15 4.8-2.05 5.5s2.88.27 1.23 2.46-1.5 5.5-.4 5.08 2.87-5.34 2.87-7.26-1.64-5.77-1.64-5.77zm-40.77-2.2s-.83 9.6-7.55 12.36 7.55-12.36 7.55-12.36zm-14-3.3c-.42.15-9.62 5.1-5.5 8s5.5-8 5.5-8zm-.56-6.86s-13.45 2.76-8.92 5.1 8.92-5.1 8.92-5.1zM136.2 185.7a5.7 5.7 0 0 0-4.17-3.92c-2.9-.44-5.33 2.1-7 4.47a75.32 75.32 0 0 0-4.87 7.84c-.44.8-1.2 3.44-2 3.9-1 .6-1.5-1-1.93-1.94-2.13-4.73-1.66-10.14-2.58-15.14-.54-2.92-1.55-5.9-1.77-8.83-.32 3.58 1.1 7.36 1.77 11 .92 5 .45 10.4 2.58 15.12.42.93.88 2.56 1.93 1.94.78-.45 1.53-3.08 2-3.9a73.27 73.27 0 0 1 4.84-7.8c1.7-2.4 4.13-4.92 7-4.47a5.7 5.7 0 0 1 4.18 3.9 10.85 10.85 0 0 1 .55 3.1 14.2 14.2 0 0 0-.52-5.3zm42.9-13.04a7.38 7.38 0 0 1-1.9 3.3c-2.5 2.1-6.47.12-9.52 1.28-.64.24-1.22.62-1.88.8-1.93.5-3.82-.8-5.54-1.83s-4.08-1.8-5.57-.45c-1.95 1.76-.54 5.52-2.53 7.22-1.27 1.07-3.27.7-4.68 1.6s-1.83 2.8-2.2 4.48-1.05 3.58-2.7 4.07-3.15-.6-4.76-.53c-.33 0-.72.05-.94-.2a.6.6 0 0 1-.12-.2c0 .55 0 1.1-.05 1.65a1 1 0 0 0 .17.75c.22.24.6.2.94.2 1.6-.07 3.22 1 4.77.52s2.35-2.4 2.7-4.07.74-3.58 2.2-4.5 3.4-.5 4.67-1.6c2-1.68.58-5.45 2.52-7.2 1.48-1.35 3.85-.58 5.56.46s3.6 2.35 5.54 1.83a19.2 19.2 0 0 0 1.88-.8c3.05-1.16 7 .82 9.52-1.28a7.3 7.3 0 0 0 1.9-3.3 21 21 0 0 0 1.4-5.24 9.45 9.45 0 0 0 0-1.83 22.6 22.6 0 0 1-1.4 4.9z" opacity=".1"/></svg>