<svg xmlns="http://www.w3.org/2000/svg" width="150" height="150" viewBox="0 0 921.176 727.902"><circle cx="209.629" cy="318.196" r="55.042" fill="#ff6584"/><path fill="#dcd4fc" d="M550.62 380.52c0 108.36-64.42 146.2-143.9 146.2s-143.88-37.84-143.88-146.2 143.9-246.22 143.9-246.22S550.6 272.15 550.6 380.52z"/><path fill="#3f3d56" d="M401.5 510.14l1.46-90.7 61.33-112.2-61.1 97.98.66-40.77 42.26-81.18-42.1 70.38 1.2-73.34 45.27-64.6-45.1 53.08.76-134.48-4.68 178.03.38-7.35-46.02-70.43 45.28 84.53-4.28 81.9-.13-2.16-53.04-74.13 52.9 81.8-.55 10.24-.08.16.04.84-10.88 207.8h14.54l1.74-107.33 52.76-81.6-52.63 73.54zM689.45 482.87c0 108.36-64.42 146.2-143.9 146.2s-143.88-37.84-143.88-146.2 143.9-246.22 143.9-246.22S689.44 374.5 689.44 482.87z"/><path fill="#f2f2f2" d="M540.32 612.5l1.48-90.7 61.32-112.2-61.1 97.98.67-40.78 42.26-81.18-42.1 70.4 1.2-73.36 45.26-64.62-45.08 53.1.75-134.5-4.7 178.04.4-7.35-46.02-70.43 45.28 84.53-4.3 81.9-.12-2.16-53.05-74.13 52.88 81.8-.54 10.25-.1.15.05.84-10.9 207.8h14.55l1.74-107.34 52.75-81.6-52.63 73.53z"/><path fill="#3f3d56" d="M418.88 482.87c0 108.36-64.42 146.2-143.9 146.2S131.1 591.23 131.1 482.87 275 236.65 275 236.65 418.87 374.5 418.87 482.87z"/><path fill="#f2f2f2" d="M269.75 612.5l1.47-90.7 61.33-112.2-61.1 97.98.67-40.78 42.27-81.18-42.1 70.4 1.18-73.36 45.27-64.62-45.08 53.1.75-134.5-4.68 178.04.38-7.35-46-70.43 45.26 84.53-4.28 81.9-.13-2.16-53.05-74.13 52.9 81.8-.55 10.25-.1.15.05.84-10.88 207.8h14.54l1.74-107.34 52.76-81.6-52.63 73.53z"/><path fill="#2f2e41" d="M410.4 727a297.46 297.46 0 1 1 210.33-87.14A295.5 295.5 0 0 1 410.4 727zm0-592.66c-162.77 0-295.2 132.42-295.2 295.2S247.63 724.7 410.4 724.7s295.2-132.43 295.2-295.2-132.44-295.18-295.2-295.18z"/><path fill="#f2f2f2" d="M653.63 599.23V725.9H167.2V599.24l243.22-126.67.5.27 242.7 126.4z"/><path d="M653.63 599.23V725.9h-242.7V472.84l242.7 126.4z" opacity=".1"/><path fill="#3f3d56" d="M389.64 550.1l-18.24 6.87v-27.15l18.24-8v28.26zm-201.66 76l-6.08 2.3v-16.5l6.08-2.7v16.9zm21.28-7.1l-7.1 2.65V603.8l7.1-3.12v18.3zm23.3-9.13l-8.1 3.05v-19.26l8.1-3.57v19.77zm28.38-11.14l-10.13 3.82V582.5l10.14-4.43v20.66zm34.46-13.18l-12.16 4.6v-21.82L295.4 563v22.55zm41.55-15.2l-14.2 5.35v-24.6l14.2-6.22v25.47zm-148.97 89.18l-6.08 1.53v-16.73l6.08-1.92v17.13zm21.28-5.07l-7.1 1.78v-18l7.1-2.23v18.46zm23.3-6.08l-8.1 2.04v-19.26l8.1-2.56v19.78zm28.38-7.1l-10.13 2.55v-20.78l10.14-3.2v21.44zm34.46-9.1l-12.16 3.06V612.9l12.16-3.8v23.07zm41.55-10.14l-15.2 3.82v-25.1l15.2-4.8v26.07zm52.7-13.18l-18.25 4.6v-27.9l18.24-5.73v29.03zm0 57.76l-18.25 2.33V641.3l18.24-3.46v28.78zm-201.67 25.34l-6.08.78v-15.98l6.08-1.16v16.36zm21.28-2.03l-7.1.9v-17.1l7.1-1.34v17.53zm23.3-3.04l-8.1 1.02v-19.27l8.1-1.54v19.8zm28.38-4.06l-10.13 1.3v-20.56l10.14-1.93v21.2zm34.46-4.06l-12.16 1.55V657.5l12.16-2.3v23.58zm41.55-5.06l-15.2 1.92V650.4l15.2-2.88v26.2zm296.92-47.63l6.08 2.3v-16.5l-6.1-2.7v16.9zm-21.3-7.1l7.1 2.65V603.8l-7.1-3.12v18.3zm-23.3-9.13l8.1 3.05v-19.26l-8.1-3.57v19.77zm-28.37-11.14l10.14 3.82V582.5l-10.14-4.43v20.66zm-34.45-13.18l12.16 4.6v-21.82L526.46 563v22.55zm-41.55-15.2l14.2 5.35v-24.6l-14.2-6.22v25.47zm148.97 89.18l6.08 1.53v-16.73l-6.1-1.92v17.13zm-21.3-5.07l7.1 1.78v-18l-7.1-2.23v18.46zm-23.3-6.08l8.1 2.04v-19.26l-8.1-2.56v19.78zm-28.37-7.1l10.14 2.55v-20.78l-10.14-3.2v21.44zm-34.45-9.1l12.16 3.06V612.9l-12.15-3.8v23.07zm-41.55-10.14l15.2 3.82v-25.1l-15.2-4.8v26.07zm-52.7-13.18l18.25 4.6v-27.9l-18.25-5.73v29.03zm0 57.76l18.25 2.33V641.3l-18.25-3.46v28.78zm201.67 25.34l6.08.78v-15.98l-6.1-1.16v16.36zm-21.3-2.03l7.1.9v-17.1l-7.1-1.34v17.53zm-23.3-3.04l8.1 1.02v-19.27l-8.1-1.54v19.8zm-28.37-4.06l10.14 1.3v-20.56l-10.14-1.93v21.2zm-34.45-4.06l12.16 1.55V657.5l-12.15-2.3v23.58zm-41.55-5.06l15.2 1.92V650.4l-15.2-2.88v26.2zm-35.47-116.54l-18.24-6.88v-28.6l18.23 8v27.48z"/><path fill="#2f2e41" d="M619.22 703.35h1.5v23.8h-1.5zm17.95 6.48h1.06v16.85h-1.06zm15.7 2.05h.92v14.82h-.93z"/><path fill="#3f3d56" d="M577.12 695.8v30.6l-19.76-.02-19.77-.03v-34.4l19.76 1.93 19.76 1.93zm-332.4 30.6l39.53-.05v-34.4l-39.52 3.85v30.6z"/><path fill="#2f2e41" d="M0 725.4h885.5v2.03H0z"/><path d="M577.12 695.8v30.6l-19.76-.02v-32.5l19.76 1.93z" opacity=".1"/><path fill="#2f2e41" d="M406.36 698.54h2.03v28.38h-2.04z"/><path fill="#6c63ff" d="M419.07 688.44c0 9.95-5.3 18.24-11.7 18.53-6.2.27-11.1-7.17-11.1-16.6s12.12-35.4 12.12-35.4 10.67 23.53 10.67 33.47z"/><path fill="#2f2e41" d="M168.75 707.64h1.2v16.92h-1.2z"/><path fill="#6c63ff" d="M176.33 701.6c0 5.94-3.17 10.9-6.98 11.06-3.7.17-6.63-4.27-6.63-9.9s7.24-21.1 7.24-21.1 6.37 14.02 6.37 19.95zm451.8 2.7c0 5.63-3.54 10.03-8.17 9.82-4.9-.23-9.1-5.53-9.1-11.82s9.1-22 9.1-22 8.18 18.35 8.18 24zm15.36 6.2c0 4-2.53 7.1-5.8 6.96-3.48-.17-6.46-3.92-6.46-8.38s6.46-15.58 6.46-15.58 5.8 13 5.8 17zm14.92 1.97c0 3.5-2.2 6.25-5.1 6.12-3.05-.15-5.67-3.45-5.67-7.37s5.68-13.7 5.68-13.7 5.1 11.42 5.1 14.94z"/><path fill="#a0616a" d="M665.62 163.25s-9.87 29.6-4.4 36.17-32.86-19.73-32.86-19.73l20.82-24.12z"/><circle cx="643.124" cy="113.996" r="49.207" fill="#2f2e41"/><path fill="#a0616a" d="M834.4 496.42l-25.2 19.73-14.26-23 25.2-17.55 14.26 20.82z"/><path fill="#2f2e41" d="M798.78 644.93l6.57 31.78L824 701.93s50.4 15.34 16.43 23-41.65-5.47-41.65-5.47l-24.1-20.82v28.5H759.3l-3.3-40.55s-2.18-12.06 7.7-25.2l2.18-19.74z"/><path fill="#a0616a" d="M671.65 251.48l8.76 50.4s93.17-9.85 99.75 8.78 8.76 24.1 8.76 24.1l-18.62 6.6-8.76-16.45a20.82 20.82 0 0 0-16.44 1.1c-8.77 4.4-85.5 15.35-90.97 1.1s-20.8-66.86-20.8-66.86l23-18.63z"/><path d="M671.65 251.48l8.76 50.4s93.17-9.85 99.75 8.78 8.76 24.1 8.76 24.1l-18.62 6.6-8.76-16.45a20.82 20.82 0 0 0-16.44 1.1c-8.77 4.4-85.5 15.35-90.97 1.1s-20.8-66.86-20.8-66.86l23-18.63z" opacity=".1"/><path fill="#2f2e41" d="M723.16 397.24l7.67 26.3 19.72 100.83s2.2 74.53 5.48 83.3 3.3 9.86 0 13.15-9.86 14.24 0 20.82 44.94 14.25 46.03 6.58 1.1-19.73 0-25.2 3.3-90.98 3.3-90.98L792.2 401.62l-44.93-20.82z"/><path d="M723.16 397.24l7.67 26.3 19.72 100.83s2.2 74.53 5.48 83.3 3.3 9.86 0 13.15-9.86 14.24 0 20.82 44.94 14.25 46.03 6.58 1.1-19.73 0-25.2 3.3-90.98 3.3-90.98L792.2 401.62l-44.93-20.82z" opacity=".1"/><path fill="#2f2e41" d="M770.28 294.22l24.1 46.03s138.1 61.37 126.05 86.58-78.9 72.33-78.9 72.33-3.3 18.64-13.16 13.16-33.98-33.98-31.78-37.27 9.85-10.96 13.14-9.86 41.64-28.5 41.64-28.5l-65.75-16.45s-78.9-2.2-83.3-39.45 0-43.84 0-43.84l-5.48-12.05 44.94-27.4zM804.26 476.15l-23.02 20.82s-19.72-8.77-31.78-5.48-32.88 5.47-32.88 5.47l3.3 18.63 27.95-5.16-22.48 31.47s0 49.32 14.25 49.32 9.86-29.6 9.86-29.6l43.84-33.96s21.92-8.77 24.1-8.77-13.14-42.75-13.14-42.75z"/><circle cx="661.234" cy="134.756" r="37.263" fill="#a0616a"/><path fill="#575a89" d="M624.52 163.8s17.54-4.4 23.02 0 6.57 14.25 14.24 15.34 14.25 1.1 15.35 2.2 26.3 31.78 26.3 31.78 15.34 8.77 18.63 20.82 36.17 52.6 40.55 57-28.48 26.3-39.44 33.97-42.75 10.97-52.6-6.57S606.97 186.8 624.5 163.8z"/><path fill="#a0616a" d="M666.17 235.04l8.76 50.4s93.16-9.85 99.74 8.78 8.76 24.1 8.76 24.1l-18.63 6.6-8.76-16.45a20.82 20.82 0 0 0-16.44 1.1c-8.77 4.38-85.5 15.34-90.97 1.1S627.8 243.8 627.8 243.8l23.02-18.63z"/><path fill="#575a89" d="M645.22 168.4s26.43 55.68 24.23 71.02-9.86 4.38-9.86 4.38-9.87-15.34-14.26-6.57-9.86 20.82-14.25 19.73-28.5-82.2-15.35-89.87 29.47 1.3 29.47 1.3z"/><circle cx="589.817" cy="49.207" r="49.207" fill="#2f2e41"/><path fill="#2f2e41" d="M547.37 89.95a49.2 49.2 0 0 0 76-25.83 49.2 49.2 0 1 1-96-20.18 49.2 49.2 0 0 0 20 46z"/><circle cx="633.002" cy="122.197" r="36.085" fill="#2f2e41"/><ellipse cx="660.347" cy="108.665" fill="#2f2e41" rx="31.984" ry="25.013"/><ellipse cx="661.782" cy="138.591" fill="#a0616a" rx="7.124" ry="12.604"/><path fill="#2f2e41" d="M759.57 324.43s19.4-11.13 23-8.34 5.2 11.5 5.2 11.5l-22.42 8.8-6.58-12.04z"/></svg>